<svg width="74" height="61" viewBox="0 0 74 61" fill="none" xmlns="http://www.w3.org/2000/svg">
<path d="M3.71876 48.7026L0.397705 60.3369H1.54771L2.37402 57.3842H6.58192L7.40824 60.3369H8.56087L5.23982 48.7026H3.71876ZM4.47139 49.8711L6.30297 56.4237H2.63981L4.47139 49.8711Z" fill="white"/>
<path d="M13.5056 48.5261H12.4714V58.1235L12.3845 60.3367H13.2398L13.3872 59.2735C13.8003 59.9525 14.524 60.4998 15.7187 60.4998C17.8608 60.4998 18.7161 58.7709 18.7161 56.6024V56.2472C18.7161 54.0761 17.8608 52.3498 15.7187 52.3498C14.6266 52.3498 13.9187 52.8235 13.5056 53.413V48.5261ZM13.5056 54.4893C13.8161 53.9735 14.4214 53.2788 15.4845 53.2788C16.9608 53.2788 17.6529 54.4314 17.6529 56.2472V56.6024C17.6529 58.4182 16.9608 59.5682 15.4845 59.5682C14.4214 59.5682 13.8161 58.8761 13.5056 58.3577V54.4893Z" fill="white"/>
<path d="M25.7871 59.6289C24.2371 59.6289 23.8082 58.8026 23.8082 57.9447H22.7766V58.0052C22.7766 59.2 23.574 60.5 25.7871 60.5C27.7214 60.5 28.8003 59.5552 28.8003 58.1974V58.1237C28.8003 56.6895 27.9582 56.1289 25.995 55.9658C24.2977 55.8342 23.9135 55.3921 23.9135 54.5789C23.9135 53.7079 24.6056 53.221 25.7871 53.221C27.2503 53.221 27.6924 53.9158 27.6924 55.0368H28.7108V54.9789C28.7108 53.4421 27.9292 52.35 25.7871 52.35C23.9582 52.35 22.8792 53.221 22.8792 54.5789V54.6684C22.8792 55.8342 23.4845 56.571 25.595 56.75C27.1161 56.8816 27.7371 57.1342 27.7371 58.1974C27.7371 59.0684 27.0582 59.6289 25.7871 59.6289Z" fill="white"/>
<path d="M34.8809 52.5132V50.2974H33.8467V52.5132H32.6072V53.4421H33.8467V58.1658C33.8467 59.8632 34.8072 60.5 36.1361 60.5C36.7545 60.5 37.1098 60.3816 37.2282 60.3368V59.4368C37.1098 59.4947 36.7098 59.5684 36.3861 59.5684C35.3967 59.5684 34.8809 59.2737 34.8809 58.0342V53.4421H37.3756V52.5132H34.8809Z" fill="white"/>
<path d="M44.638 52.35C43.5906 52.35 42.867 52.8973 42.4538 53.5447L42.3064 52.5131H41.4512L41.538 54.7263V60.3368H42.5722V54.5342C42.8959 54.0184 43.4722 53.3526 44.6538 53.3526H44.8591V52.3658C44.8459 52.3658 44.7433 52.35 44.638 52.35Z" fill="white"/>
<path d="M53.8373 60.3368H54.6926L54.6031 58.1237V55.2579C54.6031 53.5316 53.9399 52.35 51.7689 52.35C49.4662 52.35 48.9504 53.7816 48.9504 54.9631V55.0947H49.9399C49.9399 54.0763 50.2794 53.221 51.7557 53.221C53.1426 53.221 53.5715 53.9158 53.5715 55.2579V55.4658L51.2083 55.8342C49.9399 56.0263 48.6531 56.5131 48.6531 58.2105V58.3579C48.6531 59.6131 49.482 60.5 50.9136 60.5C52.2715 60.5 53.1557 59.9237 53.6741 59.2447L53.8373 60.3368ZM51.1794 59.6C50.1294 59.6 49.6873 58.9631 49.6873 58.271V58.1368C49.6873 57.2526 50.2926 56.7631 51.2978 56.5868L53.5715 56.2184V58.3579C53.2899 58.8158 52.6268 59.6 51.1794 59.6Z" fill="white"/>
<path d="M59.8289 56.6026V56.2473C59.8289 54.4605 60.5078 53.2789 62.0578 53.2789C63.4762 53.2789 64.0526 54.1816 64.0526 55.3763H65.042V55.0816C65.042 53.8105 64.1999 52.35 62.0447 52.35C59.7552 52.35 58.7815 54.0763 58.7815 56.2473V56.6026C58.7815 58.771 59.7552 60.5 62.0447 60.5C64.1999 60.5 65.042 59.0974 65.042 57.8579V57.621H64.0526C64.0526 58.6395 63.521 59.5684 62.0578 59.5684C60.5078 59.5684 59.8289 58.3868 59.8289 56.6026Z" fill="white"/>
<path d="M71.0046 52.5132V50.2974H69.9704V52.5132H68.731V53.4421H69.9704V58.1658C69.9704 59.8632 70.931 60.5 72.2599 60.5C72.8783 60.5 73.2336 60.3816 73.352 60.3368V59.4368C73.2336 59.4947 72.8336 59.5684 72.5099 59.5684C71.5204 59.5684 71.0046 59.2737 71.0046 58.0342V53.4421H73.4994V52.5132H71.0046Z" fill="white"/>
<path d="M53.1016 33.3369H54.1068V34.3395H53.1016V33.3369Z" fill="white"/>
<path d="M20.2673 1.51575H21.2831V33.3368H20.2673V1.51575Z" fill="white"/>
<path d="M20.2673 33.3369H21.2831V34.3395H20.2673V33.3369Z" fill="white"/>
<path d="M53.1016 1.51575H54.1068V33.3368H53.1016V1.51575Z" fill="white"/>
<path d="M21.2832 33.3369H53.1017V34.3395H21.2832V33.3369Z" fill="white"/>
<path d="M53.1016 0.5H54.1068V1.51579H53.1016V0.5Z" fill="white"/>
<path d="M20.2673 0.5H21.2831V1.51579H20.2673V0.5Z" fill="white"/>
<path d="M21.2832 0.5H53.1017V1.51579H21.2832V0.5Z" fill="white"/>
<path d="M24.7673 5.00269H49.3726V29.6053H24.7673V5.00269Z" fill="white"/>
<path d="M31.9753 16.1448H42.299V18.4395H31.9753V16.1448Z" fill="#090909"/>
</svg>
