<svg width="70" height="61" viewBox="0 0 70 61" fill="none" xmlns="http://www.w3.org/2000/svg">
<path d="M35.4641 1.3953C26.9981 1.3953 20.1104 8.28304 20.1104 16.7491C20.1104 25.2151 26.9981 32.1013 35.4641 32.1013C43.9302 32.1013 50.8164 25.2151 50.8164 16.7491C50.8164 8.28304 43.9302 1.3953 35.4641 1.3953ZM35.4641 32.9981C26.5052 32.9981 19.2151 25.708 19.2151 16.7491C19.2151 7.7901 26.5052 0.5 35.4641 0.5C44.4231 0.5 51.7132 7.7901 51.7132 16.7491C51.7132 25.708 44.4231 32.9981 35.4641 32.9981Z" fill="white"/>
<path d="M35.4643 3.37152C28.0881 3.37152 22.0867 9.37286 22.0867 16.7491C22.0867 24.1253 28.0881 30.1266 35.4643 30.1266C42.8405 30.1266 48.8418 24.1253 48.8418 16.7491C48.8418 9.37286 42.8405 3.37152 35.4643 3.37152ZM35.4643 31.0219C27.5936 31.0219 21.1899 24.6197 21.1899 16.7491C21.1899 8.87844 27.5936 2.47473 35.4643 2.47473C43.3349 2.47473 49.7371 8.87844 49.7371 16.7491C49.7371 24.6197 43.3349 31.0219 35.4643 31.0219Z" fill="white"/>
<path d="M35.4642 5.34623C29.1763 5.34623 24.0613 10.4612 24.0613 16.7491C24.0613 23.037 29.1763 28.1519 35.4642 28.1519C41.7521 28.1519 46.867 23.037 46.867 16.7491C46.867 10.4612 41.7521 5.34623 35.4642 5.34623ZM35.4642 29.0472C28.6833 29.0472 23.166 23.5299 23.166 16.7491C23.166 9.96824 28.6833 4.45093 35.4642 4.45093C42.245 4.45093 47.7623 9.96824 47.7623 16.7491C47.7623 23.5299 42.245 29.0472 35.4642 29.0472Z" fill="white"/>
<path d="M35.4641 7.32096C30.266 7.32096 26.0359 11.551 26.0359 16.7491C26.0359 21.9472 30.266 26.1772 35.4641 26.1772C40.6622 26.1772 44.8922 21.9472 44.8922 16.7491C44.8922 11.551 40.6622 7.32096 35.4641 7.32096ZM35.4641 27.0725C29.7715 27.0725 25.1406 22.4416 25.1406 16.7491C25.1406 11.0566 29.7715 6.42566 35.4641 6.42566C41.1566 6.42566 45.7875 11.0566 45.7875 16.7491C45.7875 22.4416 41.1566 27.0725 35.4641 27.0725Z" fill="white"/>
<path d="M35.4642 9.29718C31.3544 9.29718 28.0123 12.6393 28.0123 16.7491C28.0123 20.8589 31.3544 24.2011 35.4642 24.2011C39.574 24.2011 42.9161 20.8589 42.9161 16.7491C42.9161 12.6393 39.574 9.29718 35.4642 9.29718ZM35.4642 25.0978C30.8615 25.0978 27.1155 21.3518 27.1155 16.7491C27.1155 12.1449 30.8615 8.40039 35.4642 8.40039C40.0669 8.40039 43.8129 12.1449 43.8129 16.7491C43.8129 21.3518 40.0669 25.0978 35.4642 25.0978Z" fill="white"/>
<path d="M35.4643 11.2718C32.4444 11.2718 29.9871 13.729 29.9871 16.749C29.9871 19.769 32.4444 22.2262 35.4643 22.2262C38.4843 22.2262 40.9416 19.769 40.9416 16.749C40.9416 13.729 38.4843 11.2718 35.4643 11.2718ZM35.4643 23.1215C31.9499 23.1215 29.0918 20.2634 29.0918 16.749C29.0918 13.2346 31.9499 10.375 35.4643 10.375C38.9787 10.375 41.8369 13.2346 41.8369 16.749C41.8369 20.2634 38.9787 23.1215 35.4643 23.1215Z" fill="white"/>
<path d="M35.4645 13.2465C33.5328 13.2465 31.962 14.8174 31.962 16.749C31.962 18.6792 33.5328 20.2515 35.4645 20.2515C37.3961 20.2515 38.967 18.6792 38.967 16.749C38.967 14.8174 37.3961 13.2465 35.4645 13.2465ZM35.4645 21.1468C33.0399 21.1468 31.0667 19.1736 31.0667 16.749C31.0667 14.3244 33.0399 12.3512 35.4645 12.3512C37.8891 12.3512 39.8623 14.3244 39.8623 16.749C39.8623 19.1736 37.8891 21.1468 35.4645 21.1468Z" fill="white"/>
<path d="M35.4646 15.2212C34.6228 15.2212 33.9368 15.9072 33.9368 16.749C33.9368 17.5909 34.6228 18.2754 35.4646 18.2754C36.3065 18.2754 36.9924 17.5909 36.9924 16.749C36.9924 15.9072 36.3065 15.2212 35.4646 15.2212ZM35.4646 19.1721C34.1283 19.1721 33.0415 18.0853 33.0415 16.749C33.0415 15.4128 34.1283 14.3259 35.4646 14.3259C36.8009 14.3259 37.8877 15.4128 37.8877 16.749C37.8877 18.0853 36.8009 19.1721 35.4646 19.1721Z" fill="white"/>
<path d="M5.35104 49.6103C3.77127 49.6103 2.60871 49.2866 1.86486 48.6363C1.20266 48.0632 0.873047 47.2792 0.873047 46.2844C0.873047 45.2912 1.20266 44.5057 1.86486 43.9267C2.60871 43.2823 3.77127 42.9586 5.35104 42.9586C6.27752 42.9586 7.04365 43.0655 7.64943 43.2793C8.2552 43.4902 8.72438 43.7782 9.05697 44.1464C9.39252 44.5146 9.61672 44.9363 9.72807 45.4114H6.90705C6.62495 44.917 6.10678 44.669 5.35104 44.669C4.70072 44.669 4.22412 44.8561 3.91975 45.2273C3.67773 45.5243 3.55747 45.8776 3.55747 46.2844C3.55747 46.6928 3.67773 47.0446 3.91975 47.3416C4.22412 47.7143 4.70072 47.8999 5.35104 47.8999C6.10678 47.8999 6.62495 47.6504 6.90705 47.1515H9.72807C9.61672 47.6311 9.39252 48.0543 9.05697 48.4225C8.72438 48.7907 8.2552 49.0817 7.64943 49.2955C7.04365 49.5049 6.27752 49.6103 5.35104 49.6103Z" fill="white"/>
<path d="M19.5168 49.4737H16.9868C16.8681 49.3119 16.7849 49.1055 16.7374 48.8561C16.6973 48.666 16.6364 48.4789 16.5533 48.2919C16.4701 48.1063 16.3246 47.9519 16.1197 47.8286C15.9178 47.7069 15.6164 47.6386 15.217 47.6267H13.4769V49.4737H10.7925V43.0834H15.1517C16.197 43.0834 17.0373 43.1606 17.6758 43.315C18.3172 43.4694 18.7834 43.7159 19.0774 44.0514C19.3699 44.384 19.5168 44.8205 19.5168 45.358C19.5168 45.8064 19.4159 46.1835 19.214 46.4924C19.012 46.7982 18.6913 47.0387 18.2518 47.2169C18.675 47.3921 18.9497 47.6015 19.0774 47.8464C19.2036 48.0929 19.2808 48.3616 19.309 48.6541C19.3402 48.9155 19.4099 49.1886 19.5168 49.4737ZM13.4769 46.0529L15.0092 46.0469C15.4368 46.0469 15.7723 46.0291 16.0188 45.9935C16.2638 45.9549 16.4434 45.9014 16.5592 45.8331C16.678 45.7663 16.7523 45.6936 16.7849 45.6134C16.8205 45.5302 16.8384 45.4456 16.8384 45.358C16.8384 45.2719 16.8205 45.1858 16.7849 45.1026C16.7523 45.0195 16.678 44.9452 16.5592 44.8769C16.4434 44.8101 16.2638 44.7582 16.0188 44.7225C15.7723 44.6839 15.4368 44.6631 15.0092 44.6631H13.4769V46.0529Z" fill="white"/>
<path d="M28.2794 49.4737H20.5825V43.0834H27.929V44.6631H23.2669V45.6668H27.2045V46.8962H23.2669V47.894H28.2794V49.4737Z" fill="white"/>
<path d="M39.3691 49.4737H36.6491L36.0492 48.4285H32.0167L31.4168 49.4737H28.6968L32.7887 43.0834H35.2772L39.3691 49.4737ZM35.1465 46.8428L34.0359 44.9066L32.9194 46.8428H35.1465Z" fill="white"/>
<path d="M44.8798 49.4737H42.2013V44.6631H39.6951V43.0834H47.3861V44.6631H44.8798V49.4737Z" fill="white"/>
<path d="M51.0433 49.4737H48.3589V43.0834H51.0433V49.4737Z" fill="white"/>
<path d="M57.892 49.4737H55.3976L51.8164 43.0834H54.5365L56.6448 47.6505L58.7531 43.0834H61.4732L57.892 49.4737Z" fill="white"/>
<path d="M69.9418 49.4737H62.2449V43.0834H69.5914V44.6631H64.9293V45.6668H68.8668V46.8962H64.9293V47.894H69.9418V49.4737Z" fill="white"/>
<path d="M14.8016 60.5C13.9375 60.5 13.2411 60.4065 12.7111 60.2209C12.184 60.0353 11.7816 59.7799 11.5054 59.4547C11.2278 59.1311 11.0422 58.7569 10.9472 58.3323H13.7979C14.0072 58.6337 14.3413 58.7836 14.8016 58.7836C15.2604 58.7836 15.5974 58.6337 15.8112 58.3323C15.8261 58.3011 15.835 58.2729 15.835 58.2491C15.835 58.1704 15.7281 58.1111 15.5143 58.071C15.3034 58.0324 14.9872 58.0027 14.564 57.9819C14.0325 57.9581 13.4742 57.9017 12.8892 57.8096C11.5856 57.6077 10.9353 57.0836 10.9353 56.2358C10.9353 56.1645 10.9383 56.0903 10.9472 56.0101C11.0422 55.587 11.2278 55.2128 11.5054 54.8877C11.7816 54.564 12.184 54.3086 12.7111 54.1215C13.2411 53.9359 13.9375 53.8424 14.8016 53.8424C15.6642 53.8424 16.3591 53.9359 16.8862 54.1215C17.4162 54.3086 17.8201 54.564 18.0977 54.8877C18.3739 55.2128 18.561 55.587 18.656 56.0101H15.8112C15.5974 55.7102 15.2604 55.5588 14.8016 55.5588C14.3413 55.5588 14.0072 55.7102 13.7979 56.0101C13.7816 56.0339 13.7741 56.0562 13.7741 56.0755C13.7741 56.1467 13.8751 56.2002 14.077 56.2358C14.2819 56.2715 14.5833 56.3011 14.9798 56.3249C15.3747 56.3487 15.7964 56.3887 16.2448 56.4437C16.6917 56.4956 17.1118 56.5862 17.5038 56.7169C17.8958 56.8475 18.2002 57.0435 18.4184 57.3048C18.5921 57.5038 18.6797 57.7547 18.6797 58.0591C18.6797 58.1467 18.6708 58.2373 18.656 58.3323C18.561 58.7569 18.3739 59.1311 18.0977 59.4547C17.8201 59.7799 17.4162 60.0353 16.8862 60.2209C16.3591 60.4065 15.6642 60.5 14.8016 60.5Z" fill="white"/>
<path d="M24.4806 60.3634H21.8021V55.5528H19.2959V53.973H26.9869V55.5528H24.4806V60.3634Z" fill="white"/>
<path d="M31.7431 60.5C30.1826 60.5 29.0854 60.1778 28.4529 59.5319C27.9184 58.9855 27.6511 58.2001 27.6511 57.1741V53.973H30.3296V57.1741C30.3296 57.6181 30.4038 57.97 30.5553 58.2313C30.7721 58.5995 31.1685 58.7836 31.7431 58.7836C32.3206 58.7836 32.7171 58.5995 32.9309 58.2313C33.0808 57.9625 33.1566 57.6106 33.1566 57.1741V53.973H35.841V57.2098C35.841 58.212 35.5752 58.9855 35.0452 59.5319C34.4037 60.1778 33.3021 60.5 31.7431 60.5Z" fill="white"/>
<path d="M41.2248 60.3634H36.9487V53.973H41.2248C42.9738 53.973 44.2314 54.2165 44.9961 54.7035C45.6137 55.0999 45.9656 55.6389 46.0532 56.3189C46.0918 56.6129 46.1126 56.895 46.1126 57.1682C46.1126 57.4384 46.0918 57.7205 46.0532 58.0175C46.0176 58.3144 45.9181 58.6025 45.7562 58.8786C45.5974 59.1563 45.3435 59.4057 44.9961 59.6269C44.6471 59.8496 44.1676 60.0278 43.5588 60.1614C42.953 60.2966 42.175 60.3634 41.2248 60.3634ZM40.9694 58.7836C42.3354 58.7836 43.1075 58.4391 43.2856 57.7502C43.3331 57.5572 43.3569 57.3627 43.3569 57.1682C43.3569 56.9752 43.3302 56.7822 43.2797 56.5921C43.2322 56.3991 43.1282 56.2239 42.9709 56.0695C42.812 55.9121 42.5729 55.7874 42.2522 55.6953C41.9345 55.6003 41.5069 55.5528 40.9694 55.5528H39.6332V58.7836H40.9694Z" fill="white"/>
<path d="M49.8595 60.3634H47.175V53.973H49.8595V60.3634Z" fill="white"/>
<path d="M55.4013 60.5C53.8216 60.5 52.659 60.1763 51.9152 59.526C51.253 58.9484 50.9233 58.163 50.9233 57.1682C50.9233 56.1794 51.253 55.3955 51.9152 54.8164C52.659 54.1676 53.8216 53.8424 55.4013 53.8424C56.9811 53.8424 58.1422 54.1676 58.8875 54.8164C59.5482 55.3955 59.8793 56.1794 59.8793 57.1682C59.8793 58.163 59.5482 58.9484 58.8875 59.526C58.1422 60.1763 56.9811 60.5 55.4013 60.5ZM55.4013 58.7836C56.0457 58.7836 56.5208 58.5995 56.8267 58.2313C57.0672 57.9314 57.189 57.5765 57.189 57.1682C57.189 56.7614 57.0672 56.408 56.8267 56.1111C56.5208 55.7399 56.0457 55.5528 55.4013 55.5528C54.751 55.5528 54.2744 55.7399 53.97 56.1111C53.728 56.408 53.6078 56.7614 53.6078 57.1682C53.6078 57.5765 53.728 57.9314 53.97 58.2313C54.2744 58.5995 54.751 58.7836 55.4013 58.7836Z" fill="white"/>
</svg>
