<svg width="18" height="18" viewBox="0 0 18 18" fill="none" xmlns="http://www.w3.org/2000/svg">
<path d="M9.00008 6.32308C8.33704 6.32308 7.70115 6.58647 7.23231 7.05531C6.76347 7.52415 6.50008 8.16004 6.50008 8.82308C6.50008 9.48612 6.76347 10.122 7.23231 10.5908C7.70115 11.0597 8.33704 11.3231 9.00008 11.3231C9.66312 11.3231 10.299 11.0597 10.7678 10.5908C11.2367 10.122 11.5001 9.48612 11.5001 8.82308C11.5001 8.16004 11.2367 7.52415 10.7678 7.05531C10.299 6.58647 9.66312 6.32308 9.00008 6.32308ZM9.00008 4.65641C10.1052 4.65641 11.165 5.0954 11.9464 5.8768C12.7278 6.6582 13.1667 7.71801 13.1667 8.82308C13.1667 9.92815 12.7278 10.988 11.9464 11.7694C11.165 12.5508 10.1052 12.9897 9.00008 12.9897C7.89501 12.9897 6.8352 12.5508 6.0538 11.7694C5.2724 10.988 4.83341 9.92815 4.83341 8.82308C4.83341 7.71801 5.2724 6.6582 6.0538 5.8768C6.8352 5.0954 7.89501 4.65641 9.00008 4.65641ZM14.4167 4.44808C14.4167 4.72435 14.307 4.9893 14.1117 5.18465C13.9163 5.38 13.6513 5.48975 13.3751 5.48975C13.0988 5.48975 12.8339 5.38 12.6385 5.18465C12.4432 4.9893 12.3334 4.72435 12.3334 4.44808C12.3334 4.17181 12.4432 3.90686 12.6385 3.71151C12.8339 3.51616 13.0988 3.40641 13.3751 3.40641C13.6513 3.40641 13.9163 3.51616 14.1117 3.71151C14.307 3.90686 14.4167 4.17181 14.4167 4.44808ZM9.00008 2.15641C6.93841 2.15641 6.60175 2.16225 5.64258 2.20475C4.98925 2.23558 4.55091 2.32308 4.14425 2.48141C3.80393 2.60636 3.49626 2.80663 3.24425 3.06725C2.98342 3.31925 2.78288 3.6269 2.65758 3.96725C2.49925 4.37558 2.41175 4.81308 2.38175 5.46558C2.33841 6.38558 2.33341 6.70725 2.33341 8.82308C2.33341 10.8847 2.33925 11.2214 2.38175 12.1806C2.41258 12.8331 2.50008 13.2722 2.65758 13.6781C2.79925 14.0406 2.96591 14.3014 3.24258 14.5781C3.52341 14.8581 3.78425 15.0256 4.14258 15.1639C4.55425 15.3231 4.99258 15.4114 5.64258 15.4414C6.56258 15.4847 6.88425 15.4897 9.00008 15.4897C11.0617 15.4897 11.3984 15.4839 12.3576 15.4414C13.0092 15.4106 13.4484 15.3231 13.8551 15.1656C14.1949 15.04 14.5024 14.8401 14.7551 14.5806C15.0359 14.2997 15.2034 14.0389 15.3417 13.6806C15.5001 13.2697 15.5884 12.8306 15.6184 12.1806C15.6617 11.2606 15.6667 10.9389 15.6667 8.82308C15.6667 6.76141 15.6609 6.42475 15.6184 5.46558C15.5876 4.81391 15.5001 4.37391 15.3417 3.96725C15.2162 3.62725 15.016 3.31971 14.7559 3.06725C14.504 2.80628 14.1963 2.60572 13.8559 2.48058C13.4476 2.32225 13.0092 2.23475 12.3576 2.20475C11.4376 2.16141 11.1159 2.15641 9.00008 2.15641ZM9.00008 0.489746C11.2642 0.489746 11.5467 0.498079 12.4351 0.539746C13.3226 0.581413 13.9267 0.72058 14.4584 0.927246C15.0084 1.13891 15.4717 1.42558 15.9351 1.88808C16.3588 2.30466 16.6867 2.80857 16.8959 3.36475C17.1017 3.89558 17.2417 4.50058 17.2834 5.38808C17.3226 6.27641 17.3334 6.55891 17.3334 8.82308C17.3334 11.0872 17.3251 11.3697 17.2834 12.2581C17.2417 13.1456 17.1017 13.7497 16.8959 14.2814C16.6873 14.8379 16.3593 15.3419 15.9351 15.7581C15.5184 16.1817 15.0145 16.5095 14.4584 16.7189C13.9276 16.9247 13.3226 17.0647 12.4351 17.1064C11.5467 17.1456 11.2642 17.1564 9.00008 17.1564C6.73591 17.1564 6.45341 17.1481 5.56508 17.1064C4.67758 17.0647 4.07341 16.9247 3.54175 16.7189C2.98535 16.5101 2.48135 16.1822 2.06508 15.7581C1.64125 15.3416 1.31336 14.8376 1.10425 14.2814C0.897581 13.7506 0.758415 13.1456 0.716748 12.2581C0.677581 11.3697 0.666748 11.0872 0.666748 8.82308C0.666748 6.55891 0.675081 6.27641 0.716748 5.38808C0.758415 4.49975 0.897581 3.89641 1.10425 3.36475C1.31278 2.80823 1.64075 2.30418 2.06508 1.88808C2.48147 1.46411 2.98544 1.13619 3.54175 0.927246C4.07341 0.72058 4.67675 0.581413 5.56508 0.539746C6.45341 0.500579 6.73591 0.489746 9.00008 0.489746Z" fill="white"/>
</svg>
