<svg width="70" height="61" viewBox="0 0 70 61" fill="none" xmlns="http://www.w3.org/2000/svg">
<path d="M2.49978 60.4221H0.81543V53.8051H2.49978V60.4221Z" fill="white"/>
<path d="M12.1017 60.4221H10.6155L7.57233 56.3528V60.4221H5.99414V53.8051H7.48033L10.5306 57.8885V53.8051H12.1017V60.4221Z" fill="white"/>
<path d="M27.2284 60.4221H25.7422L25.7351 56.1263L24.1498 59.764H23.0529L21.4676 56.1263V60.4221H19.9602V53.798H21.8073L23.5978 57.7399L25.3954 53.798H27.2284V60.4221Z" fill="white"/>
<path d="M33.8742 53.7484C34.8969 53.7484 35.7497 54.0704 36.4291 54.7109C37.112 55.3478 37.4552 56.1458 37.4552 57.103C37.4552 58.0707 37.112 58.8793 36.4291 59.5304C35.7443 60.178 34.8898 60.5 33.8671 60.5C32.848 60.5 31.9988 60.178 31.3194 59.5304C30.64 58.8846 30.3003 58.0761 30.3003 57.103C30.3003 56.1405 30.64 55.3408 31.3194 54.7038C31.9988 54.0669 32.8498 53.7484 33.8742 53.7484ZM33.8884 55.1568C33.3735 55.1568 32.933 55.3461 32.565 55.7229C32.2005 56.0962 32.02 56.5616 32.02 57.1171C32.02 57.6691 32.204 58.1362 32.572 58.5184C32.94 58.9005 33.3788 59.0916 33.8884 59.0916C34.3979 59.0916 34.8296 58.9005 35.1835 58.5184C35.5409 58.1362 35.7213 57.6691 35.7213 57.1171C35.7213 56.5616 35.5409 56.0962 35.1835 55.7229C34.8296 55.3461 34.3979 55.1568 33.8884 55.1568Z" fill="white"/>
<path d="M45.5716 55.1568H43.5759V60.4221H41.8915V55.1568H39.917V53.798H45.5716V55.1568Z" fill="white"/>
<path d="M50.1426 60.4221H48.4583V53.8051H50.1426V60.4221Z" fill="white"/>
<path d="M56.7788 53.7484C57.8014 53.7484 58.6542 54.0704 59.3336 54.7109C60.0165 55.3478 60.3598 56.1458 60.3598 57.103C60.3598 58.0707 60.0165 58.8793 59.3336 59.5304C58.6489 60.178 57.7943 60.5 56.7717 60.5C55.7526 60.5 54.9033 60.178 54.2239 59.5304C53.5445 58.8846 53.2048 58.0761 53.2048 57.103C53.2048 56.1405 53.5445 55.3408 54.2239 54.7038C54.9033 54.0669 55.7544 53.7484 56.7788 53.7484ZM56.7929 55.1568C56.2781 55.1568 55.8375 55.3461 55.4695 55.7229C55.105 56.0962 54.9246 56.5616 54.9246 57.1171C54.9246 57.6691 55.1086 58.1362 55.4766 58.5184C55.8446 58.9005 56.2834 59.0916 56.7929 59.0916C57.3025 59.0916 57.7342 58.9005 58.088 58.5184C58.4454 58.1362 58.6259 57.6691 58.6259 57.1171C58.6259 56.5616 58.4454 56.0962 58.088 55.7229C57.7342 55.3461 57.3025 55.1568 56.7929 55.1568Z" fill="white"/>
<path d="M69.524 60.4221H68.0378L64.9947 56.3528V60.4221H63.4165V53.8051H64.9027L67.9529 57.8885V53.8051H69.524V60.4221Z" fill="white"/>
<path d="M49.3893 42.584H14.1631V7.32764H49.3893V42.584ZM14.7257 42.0213H48.8267V7.89027H14.7257V42.0213Z" fill="white"/>
<path d="M52.5741 39.0206H17.3496V3.76428H52.5741V39.0206ZM17.9105 38.458H52.0115V4.32691H17.9105V38.458Z" fill="white"/>
<path d="M55.9462 35.7581H20.7217V0.5H55.9462V35.7581ZM21.2843 35.1955H55.3853V1.06263H21.2843V35.1955Z" fill="white"/>
<path d="M25.4614 23.4598H33.2515V31.2517H25.4614V23.4598Z" fill="white"/>
</svg>
