<svg width="65" height="61" viewBox="0 0 65 61" fill="none" xmlns="http://www.w3.org/2000/svg">
<path d="M0.544922 51.3761H1.54785V43.3931H0.544922V51.3761Z" fill="white"/>
<path d="M11.3901 43.3931V49.5514L6.91907 43.3931H6.00732V51.3761H6.98832V45.1496L11.5263 51.3761H12.3699V43.3931H11.3901Z" fill="white"/>
<path d="M22.1786 43.3932L19.6361 49.8828L17.0578 43.3932H15.9521L19.179 51.3762H20.1035L23.2738 43.3932H22.1786Z" fill="white"/>
<path d="M26.8887 51.3761H27.8916V43.3931H26.8887V51.3761Z" fill="white"/>
<path d="M34.7346 51.4788C36.3192 51.4788 37.5518 50.6236 37.5518 49.1174C37.5518 47.4532 36.1369 47.122 34.8823 46.8138C33.8563 46.5749 32.9331 46.3464 32.9331 45.4797C32.9331 44.7157 33.6625 44.2598 34.6319 44.2598C35.6014 44.2598 36.3308 44.7734 36.3308 45.662H37.3233C37.3233 44.2148 36.3088 43.3019 34.655 43.3019C33.0011 43.3019 31.9405 44.134 31.9405 45.5143C31.9405 47.1104 33.2978 47.4417 34.5292 47.7267C35.5667 47.9772 36.5131 48.1942 36.5131 49.129C36.5131 49.9738 35.7272 50.4978 34.7231 50.4978C33.6174 50.4978 32.8073 49.9161 32.8073 48.9247H31.7812C31.7812 50.4978 32.9781 51.4788 34.7346 51.4788Z" fill="white"/>
<path d="M41.4404 51.3761H42.4434V43.3931H41.4404V51.3761Z" fill="white"/>
<path d="M50.5405 51.5135C52.9583 51.5135 54.7137 49.7454 54.7137 47.3956C54.7137 45.0354 52.9583 43.2673 50.5405 43.2673C48.1226 43.2673 46.3545 45.0354 46.3545 47.3956C46.3545 49.7454 48.1226 51.5135 50.5405 51.5135ZM50.5405 50.5325C48.7273 50.5325 47.3817 49.1752 47.3817 47.3956C47.3817 45.6056 48.7273 44.2483 50.5405 44.2483C52.3536 44.2483 53.6993 45.594 53.6993 47.3956C53.6993 49.1868 52.3536 50.5325 50.5405 50.5325Z" fill="white"/>
<path d="M64.0205 43.3931V49.5514L59.5494 43.3931H58.6377V51.3761H59.6187V45.1496L64.1567 51.3761H65.0003V43.3931H64.0205Z" fill="white"/>
<path d="M16.0367 60.1619C16.6623 60.1619 17.1493 59.8249 17.1493 59.2305C17.1493 58.5727 16.5907 58.4423 16.0956 58.3199C15.6905 58.2253 15.3258 58.1353 15.3258 57.7937C15.3258 57.4924 15.6132 57.3112 15.9964 57.3112C16.3795 57.3112 16.6669 57.5144 16.6669 57.8652H17.0593C17.0593 57.2939 16.6577 56.9338 16.0056 56.9338C15.3524 56.9338 14.9334 57.2628 14.9334 57.8075C14.9334 58.4376 15.4689 58.5681 15.956 58.6812C16.3657 58.7793 16.7396 58.8647 16.7396 59.234C16.7396 59.5675 16.428 59.7753 16.0321 59.7753C15.5959 59.7753 15.2762 59.5456 15.2762 59.1532H14.8711C14.8711 59.7753 15.3431 60.1619 16.0367 60.1619Z" fill="white"/>
<path d="M24.5295 60.5L23.9167 59.7925C24.2641 59.4959 24.4707 59.0585 24.4707 58.5495C24.4707 57.6182 23.7771 56.9199 22.8226 56.9199C21.8682 56.9199 21.1699 57.6182 21.1699 58.5495C21.1699 59.4774 21.8682 60.1757 22.8226 60.1757C23.1111 60.1757 23.3812 60.1122 23.6109 59.9956L24.0437 60.5H24.5295ZM22.8226 59.7879C22.1071 59.7879 21.5762 59.2524 21.5762 58.5495C21.5762 57.8432 22.1071 57.3077 22.8226 57.3077C23.5393 57.3077 24.0702 57.8386 24.0702 58.5495C24.0702 58.9327 23.9121 59.2662 23.6559 59.4867L23.0881 58.8288H22.6068L23.3454 59.6852C23.1873 59.7521 23.0119 59.7879 22.8226 59.7879Z" fill="white"/>
<path d="M29.9229 60.1756C30.6304 60.1756 31.1567 59.6666 31.1567 58.9511V56.9695H30.7608V58.9188C30.7608 59.4416 30.41 59.7878 29.9229 59.7878C29.4324 59.7878 29.0862 59.4416 29.0862 58.9188V56.9695H28.6846V58.9511C28.6846 59.6666 29.212 60.1756 29.9229 60.1756Z" fill="white"/>
<path d="M37.7843 60.1214H38.2125L36.8888 56.9695H36.5194L35.2314 60.1214H35.6504L35.9562 59.3689H37.4739L37.7843 60.1214ZM36.7087 57.5142L37.3262 59.0042H36.1051L36.7087 57.5142Z" fill="white"/>
<path d="M44.1604 60.1214H44.6071L43.85 58.8426C44.2643 58.726 44.5482 58.3787 44.5482 57.9332C44.5482 57.3746 44.1119 56.9695 43.521 56.9695H42.3242V60.1214H42.7201V58.8922H43.4356L44.1604 60.1214ZM42.7201 57.348H43.4991C43.8857 57.348 44.1431 57.595 44.1431 57.9332C44.1431 58.2702 43.8857 58.5137 43.4991 58.5137H42.7201V57.348Z" fill="white"/>
<path d="M49.222 59.7428V58.6845H50.4916V58.3198H49.222V57.348H50.6093V56.9695H48.8262V60.1214H50.6589V59.7428H49.222Z" fill="white"/>
<path d="M18.4547 3.08179H25.9691L24.9812 4.04201H18.9348V10.0815L17.9746 11.0763V3.08179H18.4547ZM28.7032 3.08179H36.8443L37.8046 4.04201H27.743L28.7032 3.08179ZM39.6061 3.08179H47.6007V11.0763L46.6127 10.0884V4.04201H40.5733L39.6061 3.08179ZM47.6007 13.8116V21.9515L46.6127 22.9117V12.8513L47.6007 13.8116ZM47.6007 24.7145V32.709H39.6061L40.5664 31.7211H46.6058V25.6816L47.6007 24.7145ZM36.8443 32.709H28.7032L27.743 31.7211H37.8046L36.8443 32.709ZM25.9691 32.709H17.9746V24.7145L18.9348 25.6747V31.7141H24.9743L25.9691 32.709ZM17.9746 21.9515V13.8116L18.9348 12.8513V22.9117L17.9746 21.9515Z" fill="white"/>
<path d="M36.4812 0.653497L50.1816 14.354V21.4437L36.3288 35.2896H29.2449L15.3921 21.4367C15.3921 19.0639 15.3921 16.6922 15.3921 14.347C19.9912 9.72713 24.6181 5.10029 29.2449 0.5H36.3358L36.4812 0.653497ZM49.1937 14.7429L35.911 1.46022H29.635L16.3523 14.7429V21.019L29.6281 34.2947H35.9041L49.1799 21.019V14.7429H49.1937Z" fill="white"/>
<path d="M33.1142 3.41648L36.6285 6.9296H35.2436L32.7876 4.43902L30.2971 6.9296H28.9468L32.7876 3.08179L33.1142 3.41648ZM38.5836 8.88466L41.7978 12.1V13.4492L37.1987 8.88466H38.5836ZM43.7529 14.0482L47.6007 17.8948L43.7529 21.7426V20.3588L46.2169 17.8948L43.7529 15.4042V14.0482ZM41.7978 23.6908L38.5836 26.9061H37.1987L41.7978 22.307V23.6908ZM36.6354 28.8612L32.7876 32.709L28.9398 28.8612H30.2901L32.7876 31.3241L35.2505 28.8612H36.6354ZM26.9917 26.9061L23.7775 23.6908V22.307L28.342 26.9061H26.9917ZM21.8224 21.7426L17.9746 17.8948L21.8224 14.0482V15.3973L19.3307 17.8948L21.8224 20.3588V21.7426ZM23.7775 12.1L26.9917 8.88466H28.342L23.7775 13.4492V12.1Z" fill="white"/>
<path d="M43.2443 11.1952V24.7767L39.8143 28.2275L39.453 28.3464H26.0861L25.7595 28.2275L22.3018 24.7698V10.9863L25.8772 7.40967H39.6677L43.2443 10.9863V11.1952ZM42.2771 24.3867V11.404L39.2718 8.36989H26.295L23.262 11.404V24.3797L26.295 27.3862H39.2718L42.2771 24.3867Z" fill="white"/>
<path d="M33.1133 7.95219L36.8088 11.6477L32.7867 15.7032L28.73 11.6477L32.7867 7.61865L33.1133 7.95219ZM35.4585 11.6477L32.7867 8.94011L30.0803 11.6477L32.7867 14.354L35.4585 11.6477Z" fill="white"/>
<path d="M42.7295 18.2226L39.0075 21.9169L34.9785 17.8948L39.0075 13.8392L43.0631 17.8948L42.7295 18.2226ZM39.0075 20.6023L41.7139 17.8948L39.0075 15.1884L36.3288 17.8948L39.0075 20.6023Z" fill="white"/>
<path d="M32.4605 27.8387L28.7373 24.1155L32.794 20.0876L36.823 24.1155L32.7871 28.1722L32.4605 27.8387ZM30.0807 24.1155L32.7871 26.8219L35.4589 24.1155L32.7871 21.4368L30.0807 24.1155Z" fill="white"/>
<path d="M22.8445 17.5682L26.5388 13.8462L30.5955 17.9029L26.5388 21.9307L22.5098 17.8948L22.8445 17.5682ZM26.5388 15.1884L23.8324 17.8948L26.5388 20.6024L29.2452 17.8948L26.5388 15.1884Z" fill="white"/>
<path d="M33.1137 14.6529L36.3567 17.8948L32.787 21.4714L29.2104 17.8948L32.787 14.3193L33.1137 14.6529ZM35.0133 17.8948L32.787 15.6685L30.5608 17.8948L32.787 20.1222L35.0133 17.8948Z" fill="white"/>
</svg>
