<svg width="60" height="61" viewBox="0 0 60 61" fill="none" xmlns="http://www.w3.org/2000/svg">
<path d="M31.285 30.663H59.7043C59.8341 30.663 59.9233 30.6035 59.9733 30.4831C60.0233 30.3643 60.003 30.2579 59.9123 30.1657L30.7955 0.587574C30.7377 0.529713 30.6689 0.5 30.586 0.5H0.299487C0.16969 0.5 0.0789881 0.560989 0.0289458 0.679839C-0.0210964 0.79869 -0.000766644 0.905029 0.088371 0.997295L28.7172 30.0781H0.299487C0.168125 30.0765 0.0774243 30.1375 0.027382 30.2579C-0.024224 30.3784 -0.00233077 30.4847 0.088371 30.577L29.2067 60.1551C29.2646 60.2145 29.3349 60.2426 29.4163 60.2426H59.7043C59.8341 60.2426 59.9233 60.1832 59.9733 60.0628C60.0233 59.9439 60.003 59.8376 59.9123 59.7453L31.285 30.663ZM0.998515 1.08487H30.4593L59.0053 30.0781H29.5445L0.998515 1.08487ZM29.5398 59.6578L0.998515 30.663H30.4593L59.0053 59.6578H29.5398Z" fill="white"/>
</svg>
