<svg width="50" height="53" viewBox="0 0 50 53" fill="none" xmlns="http://www.w3.org/2000/svg">
<path d="M50 27.5759C50 41.3615 38.7849 52.5766 25.0007 52.5766C11.2165 52.5766 0 41.3615 0 27.5759C0 27.5027 0.0257727 27.4403 0.0773175 27.3874C0.130219 27.3358 0.192615 27.3101 0.265864 27.3101H49.7328C49.806 27.3101 49.8698 27.3358 49.9213 27.3874C49.9742 27.4403 50 27.5027 50 27.5759ZM0 25.6335C0 11.8479 11.2151 0.632812 24.9993 0.632812C38.7835 0.632812 50 11.8479 50 25.6335C50 25.7067 49.9742 25.7691 49.9213 25.822C49.8698 25.8736 49.806 25.8994 49.7328 25.8994H0.265864C0.192615 25.8994 0.130219 25.8736 0.0773175 25.822C0.0257727 25.7691 0 25.7067 0 25.6335ZM47.9423 25.3663H49.4656C49.4371 22.5327 48.9298 19.7872 47.9423 17.1299V25.3663ZM43.4104 25.3663H47.4092V15.8155C46.3973 13.5163 45.0652 11.4206 43.4104 9.53111V25.3663ZM38.8771 25.3663H42.8773V8.94376C41.6673 7.64836 40.3353 6.49809 38.8771 5.49025V25.3663ZM34.3452 25.3663H38.3441V5.13079C37.0771 4.30336 35.7437 3.59936 34.3452 3.0188V25.3663ZM29.8134 25.3663H33.8122V2.80448C32.5127 2.30124 31.1793 1.9133 29.8134 1.64065V25.3663ZM25.2801 25.3663H29.2789V1.53892C27.9564 1.30561 26.623 1.18217 25.2801 1.16997V25.3663ZM0.533084 25.3663H24.7321V1.1659C11.4538 1.31239 0.676867 12.0867 0.533084 25.3663Z" fill="white"/>
</svg>
