<svg width="60" height="61" viewBox="0 0 60 61" fill="none" xmlns="http://www.w3.org/2000/svg">
<path d="M30 60.5016C13.4571 60.5016 0 47.0429 0 30.5016C0 13.9602 13.4571 0.5 30 0.5C46.5429 0.5 60 13.9587 60 30.5016C60 47.0445 46.5413 60.5016 30 60.5016ZM30 1.08903C13.7837 1.08903 0.587469 14.2852 0.587469 30.5016C0.587469 46.7195 13.7837 59.9125 30 59.9125C46.2179 59.9125 59.411 46.7195 59.411 30.5016C59.411 14.2852 46.2179 1.08903 30 1.08903ZM30 54.4409C16.7991 54.4409 6.06218 43.7009 6.06218 30.5016C6.06218 17.3022 16.7991 6.56375 30 6.56375C43.2009 6.56375 53.9394 17.3007 53.9394 30.5016C53.9394 43.7024 43.1993 54.4409 30 54.4409ZM30 7.15278C17.1257 7.15278 6.65122 17.6272 6.65122 30.5016C6.65122 43.3775 17.1257 53.8519 30 53.8519C42.8759 53.8519 53.3503 43.3759 53.3503 30.5016C53.3503 17.6288 42.8743 7.15278 30 7.15278ZM30 48.3772C29.4157 48.3772 28.8313 48.3491 28.2485 48.2913C27.6657 48.2335 27.0877 48.1491 26.5127 48.0335C25.9393 47.9194 25.3706 47.7772 24.8112 47.6085C24.2503 47.4382 23.7003 47.2413 23.1597 47.0163C22.6176 46.7929 22.0895 46.5429 21.5723 46.2664C21.0567 45.9914 20.5552 45.6898 20.0677 45.3649C19.5818 45.0399 19.1115 44.6914 18.6584 44.3196C18.2069 43.9493 17.7725 43.5556 17.3585 43.1415C16.9444 42.7275 16.5523 42.2947 16.1804 41.8416C15.8086 41.3901 15.4601 40.9198 15.1351 40.4323C14.8102 39.9464 14.5102 39.4448 14.2336 38.9277C13.9571 38.4121 13.7071 37.8824 13.4837 37.3418C13.2587 36.8012 13.0618 36.2513 12.8915 35.6904C12.7228 35.1294 12.5806 34.5623 12.4665 33.9889C12.3509 33.4139 12.2665 32.8358 12.2087 32.253C12.1509 31.6703 12.1228 31.0859 12.1228 30.5C12.1228 29.9157 12.1509 29.3313 12.2087 28.7485C12.265 28.1657 12.3509 27.5877 12.465 27.0127C12.5806 26.4393 12.7212 25.8721 12.8915 25.3112C13.0618 24.7519 13.2587 24.2003 13.4821 23.6597C13.7071 23.1191 13.9571 22.5895 14.2336 22.0739C14.5086 21.5567 14.8102 21.0552 15.1351 20.5693C15.4601 20.0818 15.8086 19.6131 16.1804 19.16C16.5507 18.7069 16.9444 18.2741 17.3585 17.86C17.7725 17.446 18.2053 17.0538 18.6584 16.682C19.1099 16.3101 19.5802 15.9617 20.0677 15.6367C20.5536 15.3117 21.0552 15.0102 21.5723 14.7352C22.0879 14.4586 22.6176 14.2087 23.1582 13.9852C23.6988 13.7602 24.2487 13.5634 24.8096 13.3931C25.3706 13.2243 25.9377 13.0822 26.5111 12.9681C27.0861 12.8525 27.6642 12.7665 28.247 12.7103C28.8298 12.6525 29.4141 12.6244 29.9984 12.6244C30.5843 12.6244 31.1687 12.6525 31.7515 12.7103C32.3343 12.7665 32.9123 12.8525 33.4873 12.9665C34.0607 13.0822 34.6279 13.2228 35.1888 13.3931C35.7481 13.5634 36.2997 13.7602 36.8403 13.9837C37.3809 14.2087 37.9105 14.4586 38.4261 14.7352C38.9433 15.0102 39.4448 15.3117 39.9307 15.6367C40.4182 15.9617 40.8869 16.3101 41.34 16.682C41.7931 17.0538 42.2259 17.446 42.64 17.86C43.054 18.2741 43.4462 18.7069 43.818 19.16C44.1899 19.6131 44.5383 20.0818 44.8633 20.5693C45.1883 21.0567 45.4898 21.5583 45.7648 22.0739C46.0414 22.591 46.2913 23.1191 46.5148 23.6597C46.7398 24.2019 46.9366 24.7519 47.1069 25.3128C47.2757 25.8721 47.4178 26.4393 47.5319 27.0142C47.646 27.5892 47.7319 28.1673 47.7897 28.7501C47.8475 29.3329 47.8756 29.9172 47.8756 30.5016C47.8756 31.0875 47.8459 31.6718 47.7881 32.253C47.7303 32.8358 47.6444 33.4139 47.5288 33.9873C47.4147 34.5623 47.2725 35.1294 47.1022 35.6888C46.9319 36.2481 46.7335 36.7997 46.5101 37.3403C46.2851 37.8809 46.0351 38.409 45.7586 38.9246C45.4836 39.4402 45.182 39.9417 44.857 40.4276C44.5321 40.9151 44.1836 41.3838 43.8118 41.8369C43.4415 42.2884 43.0478 42.7228 42.6337 43.1353C42.2212 43.5493 41.7869 43.9431 41.3353 44.3133C40.8822 44.6852 40.4135 45.0336 39.926 45.3586C39.4401 45.6836 38.9386 45.9851 38.423 46.2601C37.9074 46.5367 37.3793 46.7867 36.8387 47.0116C36.2981 47.2351 35.7466 47.4335 35.1872 47.6038C34.6279 47.7741 34.0607 47.9163 33.4858 48.0303C32.9123 48.146 32.3343 48.2319 31.7515 48.2897C31.1703 48.3475 30.5859 48.3772 30 48.3772ZM30 13.215C29.4344 13.215 28.8688 13.2415 28.3063 13.2978C27.7423 13.3525 27.183 13.4353 26.6283 13.5462C26.0721 13.6571 25.5237 13.7946 24.9815 13.9587C24.4394 14.1227 23.9081 14.3133 23.3847 14.5305C22.8613 14.7461 22.3504 14.9883 21.8504 15.2555C21.3505 15.5227 20.8661 15.8133 20.3958 16.1273C19.924 16.4429 19.4709 16.7788 19.0318 17.1382C18.5943 17.4976 18.1756 17.8772 17.7756 18.2772C17.3741 18.6772 16.9944 19.0975 16.6351 19.5349C16.2773 19.9724 15.9398 20.4271 15.6257 20.8974C15.3101 21.3677 15.0195 21.8536 14.7524 22.352C14.4852 22.852 14.2446 23.3629 14.0274 23.8863C13.8102 24.4097 13.6196 24.9425 13.4555 25.4831C13.2915 26.0252 13.154 26.5736 13.0431 27.1299C12.9337 27.6845 12.8493 28.2439 12.7946 28.8079C12.7384 29.3704 12.7118 29.936 12.7118 30.5016C12.7118 31.0687 12.7384 31.6328 12.7946 32.1968C12.8493 32.7608 12.9321 33.3202 13.0431 33.8748C13.154 34.4295 13.2915 34.9795 13.4555 35.5201C13.6196 36.0622 13.8102 36.595 14.0274 37.1184C14.243 37.6403 14.4852 38.1527 14.7524 38.6511C15.0195 39.1511 15.3101 39.6355 15.6242 40.1073C15.9398 40.5776 16.2757 41.0323 16.6351 41.4697C16.9944 41.9072 17.3741 42.3259 17.7741 42.7259C18.1756 43.1275 18.5943 43.5071 19.0318 43.8665C19.4693 44.2258 19.924 44.5618 20.3943 44.8758C20.8645 45.1914 21.3505 45.482 21.8489 45.7492C22.3488 46.0164 22.8597 46.257 23.3832 46.4742C23.9066 46.6913 24.4394 46.882 24.9799 47.046C25.5221 47.2101 26.0705 47.3476 26.6267 47.4585C27.1814 47.5679 27.7407 47.6507 28.3048 47.7069C28.8688 47.7616 29.4328 47.7897 29.9984 47.7897C30.5656 47.7897 31.1296 47.7616 31.6937 47.7069C32.2577 47.6507 32.817 47.5679 33.3717 47.4585C33.9279 47.3476 34.4763 47.2101 35.0169 47.046C35.5591 46.882 36.0919 46.6913 36.6153 46.4742C37.1387 46.257 37.6496 46.0164 38.148 45.7492C38.648 45.482 39.1323 45.1914 39.6042 44.8774C40.0745 44.5618 40.5291 44.2258 40.9666 43.8665C41.4041 43.5071 41.8228 43.1275 42.2228 42.7275C42.6243 42.3259 43.004 41.9072 43.3634 41.4697C43.7227 41.0323 44.0586 40.5776 44.3743 40.1073C44.6883 39.6355 44.9789 39.1511 45.2461 38.6511C45.5133 38.1527 45.7539 37.6418 45.971 37.1184C46.1882 36.595 46.3788 36.0622 46.5429 35.5201C46.7069 34.9795 46.8444 34.4295 46.9554 33.8748C47.0647 33.3202 47.1491 32.7608 47.2038 32.1968C47.26 31.6328 47.2866 31.0687 47.2866 30.5016C47.2866 29.936 47.2585 29.3719 47.2022 28.8079C47.146 28.2454 47.0632 27.6861 46.9522 27.1314C46.8413 26.5752 46.7038 26.0284 46.5382 25.4862C46.3741 24.944 46.1835 24.4128 45.9664 23.8894C45.7492 23.3676 45.507 22.8566 45.2398 22.3567C44.9727 21.8583 44.682 21.3724 44.368 20.9021C44.054 20.4318 43.7165 19.9787 43.3571 19.5412C42.9978 19.1037 42.6181 18.6834 42.2181 18.2834C41.8181 17.8835 41.3994 17.5038 40.9619 17.1444C40.5245 16.7851 40.0714 16.4492 39.5995 16.1336C39.1292 15.8195 38.6449 15.5289 38.1465 15.2617C37.6465 14.9946 37.1356 14.7524 36.6137 14.5352C36.0903 14.318 35.5575 14.1274 35.0169 13.9634C34.4748 13.7993 33.9264 13.6603 33.3717 13.5493C32.817 13.4384 32.2577 13.3556 31.6952 13.2993C31.1312 13.2431 30.5672 13.215 30 13.215ZM30 42.315C29.6141 42.315 29.2282 42.2963 28.8422 42.2572C28.4579 42.2197 28.0751 42.1635 27.6954 42.0885C27.3158 42.0119 26.9408 41.9182 26.5705 41.8057C26.2002 41.6932 25.8362 41.5635 25.4799 41.4151C25.1221 41.2682 24.7721 41.1026 24.4315 40.9198C24.0894 40.737 23.7581 40.5385 23.4363 40.3245C23.1144 40.1089 22.8035 39.8792 22.5051 39.6339C22.2067 39.387 21.9192 39.1277 21.6457 38.8543C21.3723 38.5808 21.113 38.2949 20.8677 37.9949C20.6224 37.6965 20.3911 37.3856 20.1771 37.0637C19.9615 36.7434 19.763 36.4106 19.5802 36.07C19.3974 35.7294 19.2334 35.3794 19.0849 35.0216C18.9365 34.6638 18.8068 34.2998 18.6943 33.9295C18.5818 33.5592 18.4881 33.1858 18.4131 32.8061C18.3365 32.4265 18.2803 32.0437 18.2428 31.6593C18.2037 31.2734 18.185 30.8875 18.185 30.5C18.185 30.1141 18.2037 29.7282 18.2428 29.3422C18.2803 28.9579 18.3365 28.5751 18.4115 28.1954C18.4881 27.8158 18.5818 27.4423 18.6943 27.0721C18.8068 26.7018 18.9365 26.3377 19.0849 25.9799C19.2318 25.6221 19.3974 25.2737 19.5802 24.9315C19.763 24.5909 19.9615 24.2597 20.1755 23.9378C20.3911 23.616 20.6208 23.3051 20.8661 23.0066C21.1114 22.7067 21.3723 22.4207 21.6457 22.1473C21.9192 21.8739 22.2051 21.6145 22.5035 21.3692C22.8035 21.1224 23.1144 20.8927 23.4347 20.6771C23.7566 20.463 24.0894 20.2646 24.43 20.0818C24.7706 19.899 25.1206 19.7349 25.4784 19.5865C25.8362 19.4381 26.1986 19.3084 26.5689 19.1959C26.9392 19.0834 27.3142 18.9897 27.6939 18.9131C28.0735 18.8381 28.4563 18.7819 28.8407 18.7444C29.2266 18.7053 29.6125 18.6866 29.9984 18.6866C30.3859 18.6866 30.7718 18.7053 31.1578 18.7444C31.5421 18.7819 31.9249 18.8381 32.3046 18.9131C32.6827 18.9897 33.0577 19.0834 33.4279 19.1959C33.7982 19.3084 34.1623 19.4381 34.5201 19.5865C34.8779 19.7334 35.2263 19.899 35.5685 20.0818C35.9091 20.2646 36.2403 20.463 36.5622 20.6771C36.884 20.8927 37.1949 21.1224 37.4934 21.3677C37.7933 21.6145 38.0793 21.8739 38.3527 22.1473C38.6261 22.4207 38.8855 22.7067 39.1308 23.0066C39.3761 23.3051 39.6073 23.616 39.8214 23.9378C40.037 24.2597 40.2354 24.5909 40.4182 24.9315C40.601 25.2737 40.7651 25.6221 40.9135 25.9799C41.0619 26.3377 41.1916 26.7018 41.3041 27.0721C41.4166 27.4423 41.5103 27.8173 41.5853 28.197C41.6619 28.5767 41.7181 28.9595 41.7556 29.3438C41.7947 29.7297 41.8134 30.1156 41.8134 30.5016C41.8119 30.889 41.7931 31.275 41.7556 31.6593C41.7166 32.0437 41.6603 32.4265 41.5838 32.8061C41.5088 33.1842 41.4135 33.5592 41.301 33.9295C41.1885 34.2998 41.0588 34.6638 40.9104 35.0201C40.7619 35.3779 40.5963 35.7263 40.4151 36.0685C40.2323 36.4091 40.0339 36.7403 39.8182 37.0622C39.6026 37.3825 39.373 37.6934 39.1277 37.9918C38.8824 38.2918 38.623 38.5777 38.3496 38.8511C38.0761 39.1245 37.7902 39.3839 37.4902 39.6292C37.1918 39.8745 36.8809 40.1042 36.5606 40.3198C36.2387 40.5354 35.9075 40.7338 35.5669 40.9151C35.2247 41.0979 34.8763 41.2635 34.5185 41.4119C34.1623 41.5604 33.7982 41.69 33.4279 41.8025C33.0577 41.915 32.6827 42.0103 32.3046 42.0853C31.9249 42.1619 31.5421 42.2181 31.1578 42.2572C30.7734 42.2947 30.3875 42.3134 30 42.315ZM30 19.2771C29.6328 19.2771 29.2657 19.2959 28.9001 19.3318C28.5345 19.3678 28.1704 19.4209 27.8111 19.4928C27.4501 19.5646 27.0939 19.6537 26.7424 19.7599C26.3893 19.8677 26.044 19.9912 25.7049 20.1318C25.3643 20.2724 25.0331 20.4286 24.7081 20.6021C24.3847 20.7755 24.0691 20.9646 23.7644 21.1692C23.4582 21.3724 23.1629 21.5911 22.8785 21.8255C22.5941 22.0583 22.3223 22.3051 22.0629 22.5645C21.802 22.8254 21.5551 23.0973 21.3223 23.3816C21.0895 23.6644 20.8708 23.9597 20.6661 24.2659C20.4614 24.5722 20.2739 24.8862 20.1005 25.2112C19.9271 25.5346 19.7693 25.8674 19.6287 26.2065C19.488 26.5455 19.3646 26.8924 19.2584 27.2439C19.1506 27.5955 19.0615 27.9517 18.9896 28.3126C18.9178 28.6735 18.8646 29.036 18.8287 29.4016C18.7928 29.7672 18.774 30.1344 18.774 30.5016C18.774 30.8703 18.7928 31.2359 18.8287 31.6031C18.8646 31.9687 18.9178 32.3312 18.9896 32.6921C19.0615 33.053 19.1506 33.4092 19.2568 33.7608C19.3646 34.1123 19.488 34.4576 19.6287 34.7982C19.7693 35.1373 19.9255 35.4701 20.099 35.7935C20.2724 36.1185 20.4614 36.4325 20.6661 36.7387C20.8708 37.0434 21.0895 37.3387 21.3223 37.6231C21.5551 37.9074 21.802 38.1793 22.0614 38.4386C22.3223 38.6996 22.5941 38.9464 22.8785 39.1792C23.1629 39.412 23.4566 39.6308 23.7628 39.8355C24.0691 40.0401 24.3831 40.2276 24.7081 40.401C25.0315 40.5745 25.3643 40.7323 25.7034 40.8729C26.0424 41.0135 26.3892 41.1369 26.7408 41.2432C27.0923 41.351 27.4486 41.4401 27.8095 41.5119C28.1704 41.5838 28.5329 41.6369 28.8985 41.6729C29.2641 41.7088 29.6313 41.7275 29.9984 41.7275C30.3672 41.7275 30.7328 41.7088 31.0999 41.6729C31.4655 41.6369 31.828 41.5838 32.1889 41.5119C32.5499 41.4401 32.9061 41.351 33.2576 41.2432C33.6092 41.1369 33.9545 41.0135 34.2951 40.8729C34.6341 40.7323 34.9669 40.5745 35.2904 40.401C35.6153 40.2292 35.9294 40.0401 36.2356 39.8355C36.5403 39.6308 36.8356 39.412 37.1199 39.1792C37.4043 38.9464 37.6762 38.6996 37.9371 38.4402C38.1964 38.1793 38.4433 37.9074 38.6761 37.6231C38.9089 37.3387 39.1277 37.045 39.3323 36.7387C39.537 36.4325 39.7261 36.1185 39.8979 35.7935C40.0714 35.4701 40.2292 35.1373 40.3698 34.7982C40.5104 34.4576 40.6338 34.1123 40.7401 33.7608C40.8479 33.4092 40.9369 33.053 41.0088 32.6921C41.0807 32.3312 41.1338 31.9687 41.1697 31.6031C41.2057 31.2359 41.2244 30.8703 41.2244 30.5016C41.2244 30.1344 41.2057 29.7688 41.1697 29.4016C41.1322 29.036 41.0791 28.6735 41.0072 28.3126C40.9338 27.9533 40.8447 27.597 40.7385 27.2455C40.6307 26.8939 40.5073 26.5486 40.3666 26.208C40.226 25.869 40.0682 25.5378 39.8948 25.2128C39.7214 24.8894 39.5339 24.5753 39.3292 24.2691C39.1245 23.9644 38.9058 23.6691 38.673 23.3847C38.4402 23.1004 38.1933 22.8285 37.934 22.5692C37.673 22.3082 37.4012 22.0629 37.1184 21.8286C36.834 21.5958 36.5387 21.377 36.2341 21.1724C35.9278 20.9692 35.6138 20.7802 35.2888 20.6068C34.9654 20.4333 34.6341 20.2755 34.2935 20.1349C33.9545 19.9943 33.6092 19.8709 33.2576 19.7631C32.9061 19.6568 32.5499 19.5678 32.1889 19.4943C31.8296 19.4225 31.4655 19.3693 31.0999 19.3318C30.7343 19.2959 30.3687 19.2771 30 19.2771ZM30 36.2528C29.6235 36.2528 29.2485 36.2169 28.8782 36.1419C28.5079 36.0685 28.1485 35.9591 27.8001 35.8153C27.4517 35.67 27.1189 35.4935 26.8049 35.2841C26.4924 35.0748 26.2018 34.8357 25.9346 34.5685C25.6674 34.3014 25.4284 34.0108 25.219 33.6967C25.0096 33.3827 24.8315 33.0514 24.6878 32.703C24.5425 32.3546 24.4347 31.9937 24.3597 31.6234C24.2862 31.2531 24.2503 30.8797 24.2503 30.5016C24.2503 30.125 24.2862 29.75 24.3597 29.3797C24.4347 29.0095 24.5425 28.6501 24.6878 28.3017C24.8315 27.9533 25.0096 27.6205 25.219 27.3064C25.4284 26.9939 25.6674 26.7033 25.9346 26.4361C26.2018 26.169 26.4924 25.9299 26.8049 25.7206C27.1189 25.5112 27.4517 25.3331 27.8001 25.1893C28.1485 25.044 28.5079 24.9362 28.8782 24.8612C29.2485 24.7878 29.6235 24.7519 30 24.7519C30.3781 24.7519 30.7515 24.7878 31.1218 24.8612C31.4937 24.9362 31.853 25.044 32.2014 25.1893C32.5499 25.3331 32.8811 25.5112 33.1951 25.7206C33.5092 25.9299 33.7998 26.169 34.067 26.4361C34.3341 26.7033 34.5732 26.9939 34.7826 27.3064C34.9919 27.6205 35.1685 27.9533 35.3138 28.3017C35.4575 28.6501 35.5669 29.0095 35.6403 29.3797C35.7153 29.75 35.7513 30.125 35.7513 30.5016C35.7513 30.8797 35.7138 31.2531 35.6403 31.6234C35.5653 31.9937 35.4575 32.353 35.3122 32.7014C35.1669 33.0514 34.9904 33.3827 34.781 33.6951C34.5701 34.0092 34.3326 34.2998 34.0654 34.567C33.7982 34.8341 33.5076 35.0716 33.1936 35.2826C32.8811 35.4919 32.5499 35.6685 32.1999 35.8138C31.8515 35.9591 31.4921 36.0669 31.1218 36.1419C30.7515 36.2153 30.3781 36.2528 30 36.2528ZM30 25.3409C29.661 25.3409 29.3266 25.3737 28.9938 25.4393C28.661 25.5049 28.3391 25.6034 28.0251 25.7331C27.7126 25.8627 27.4142 26.0221 27.133 26.2096C26.8517 26.3987 26.5908 26.6127 26.3502 26.8518C26.1111 27.0924 25.8971 27.3533 25.708 27.6345C25.5205 27.9158 25.3612 28.2142 25.2315 28.5267C25.1018 28.8391 25.0034 29.1626 24.9378 29.4954C24.8721 29.8282 24.8393 30.1625 24.8393 30.5016C24.8393 30.8406 24.8721 31.1765 24.9378 31.5093C25.0034 31.8421 25.1018 32.164 25.2315 32.478C25.3612 32.7905 25.5205 33.0889 25.708 33.3702C25.8971 33.6514 26.1111 33.9123 26.3502 34.1529C26.5908 34.392 26.8517 34.606 27.133 34.7935C27.4142 34.9826 27.7126 35.1419 28.0251 35.2716C28.3391 35.4013 28.661 35.4982 28.9938 35.5654C29.3266 35.631 29.661 35.6638 30 35.6638C30.339 35.6638 30.675 35.631 31.0078 35.5654C31.3406 35.4982 31.6624 35.4013 31.9765 35.2716C32.2889 35.1419 32.5874 34.9826 32.8686 34.7935C33.1498 34.606 33.4108 34.392 33.6514 34.1529C33.8904 33.9123 34.1045 33.6514 34.292 33.3702C34.481 33.0889 34.6404 32.7905 34.7701 32.478C34.8997 32.164 34.9966 31.8421 35.0638 31.5093C35.1294 31.1765 35.1622 30.8406 35.1622 30.5016C35.1622 30.1625 35.1294 29.8282 35.0622 29.4954C34.9966 29.1626 34.8982 28.8407 34.7685 28.5282C34.6388 28.2142 34.4795 27.9173 34.292 27.6361C34.1029 27.3533 33.8889 27.0924 33.6498 26.8533C33.4092 26.6143 33.1498 26.4002 32.867 26.2112C32.5858 26.0237 32.2889 25.8643 31.9749 25.7346C31.6624 25.6049 31.339 25.5065 31.0078 25.4409C30.675 25.3737 30.339 25.3409 30 25.3409Z" fill="white"/>
</svg>
