<svg width="60" height="61" viewBox="0 0 60 61" fill="none" xmlns="http://www.w3.org/2000/svg">
<path d="M29.9996 60.5C21.9901 60.5 14.4482 57.3819 8.78901 51.711C3.11732 46.051 0 38.5091 0 30.4996C0 22.4901 3.11732 14.9482 8.78901 9.28901C14.4482 3.61732 21.9901 0.5 29.9996 0.5C38.0091 0.5 45.551 3.61732 51.2102 9.28901C56.8819 14.9599 59.9992 22.4901 59.9992 30.4996C59.9992 38.5091 56.8819 46.051 51.2102 51.711C45.551 57.3819 38.0091 60.5 29.9996 60.5ZM29.9996 2.2983C22.4694 2.2983 15.3833 5.23579 10.0596 10.5596C4.73579 15.8833 1.7983 22.9702 1.7983 30.4996C1.7983 38.0298 4.73579 45.1159 10.0596 50.4397C15.3833 55.7634 22.4694 58.7009 29.9996 58.7009C37.5298 58.7009 44.6159 55.7634 49.9397 50.4397C55.2634 45.1159 58.2009 38.0298 58.2009 30.4996C58.2009 22.9702 55.2634 15.8833 49.9397 10.5596C44.6159 5.23579 37.5298 2.2983 29.9996 2.2983Z" fill="white"/>
<path d="M36.1358 17.4987C36.0146 17.3861 35.8254 17.3932 35.7128 17.5144L33.2828 20.1376L33.1163 19.9843L35.5471 17.3611C35.6597 17.2399 35.6526 17.0507 35.5314 16.9381C35.4103 16.8255 35.221 16.8326 35.1077 16.9538L32.6776 19.5777L32.5119 19.4237L34.9427 16.8005C35.0545 16.6793 35.0475 16.4901 34.9263 16.3775C34.8059 16.2657 34.6159 16.2728 34.5033 16.394L32.0732 19.0171L31.9075 18.8631L34.3375 16.2407C34.4501 16.1187 34.4431 15.9295 34.3219 15.8169C34.2007 15.7051 34.0115 15.7122 33.8989 15.8334L31.4688 18.4565L31.4673 18.4557L31.3914 18.5347C31.3242 18.6082 31.2632 18.6817 31.2085 18.7568L31.2061 18.7591C31.0005 19.0382 30.8832 19.3291 30.884 19.6684C30.8848 20.0257 31.0099 20.3627 31.2382 20.6403C31.0849 20.8029 30.4008 21.4699 29.5767 22.2697C28.5916 21.2228 27.7213 20.2931 27.5462 20.0891C27.8011 19.8068 27.9512 19.455 27.9692 19.0773C27.9864 18.7169 27.8762 18.4034 27.6729 18.0984H27.6736L27.6697 18.0945C27.6158 18.0124 27.5548 17.9319 27.4876 17.8506L27.4109 17.7638L27.4094 17.7646L27.1115 17.4534C25.4696 16.0194 24.6533 15.8951 24.1756 16.3048C23.6157 16.7841 23.4257 17.6176 24.6814 19.541L24.9574 19.9092L24.9582 19.91L24.9879 19.946C25.3241 20.3534 25.6478 20.584 26.1138 20.6426C26.468 20.6864 26.8183 20.6106 27.1279 20.43C27.3023 20.6419 28.0951 21.681 28.9809 22.8467C27.7628 24.0266 26.4461 25.2979 26.1044 25.6372C25.8644 25.8663 25.7323 26.0219 25.7323 26.0219C25.4993 26.2729 25.5157 26.667 25.769 26.9015C26.0223 27.1369 26.4164 27.1228 26.6494 26.8718C26.6494 26.8718 26.8144 26.6975 26.959 26.5278L26.9598 26.5286C27.1725 26.2838 28.3593 24.8601 29.4852 23.5105C30.5408 24.9023 31.5885 26.2854 31.7886 26.5372V26.5356C31.9341 26.7225 32.0998 26.9156 32.0998 26.9156C32.3344 27.1939 32.7511 27.2276 33.031 26.9914C33.3109 26.7545 33.3477 26.3378 33.1131 26.061C33.1131 26.061 32.981 25.889 32.7378 25.6349C32.4157 25.2838 31.2351 24.0321 30.0771 22.8022C30.8316 21.9015 31.4642 21.1493 31.6174 20.9804C31.9004 21.1642 32.2273 21.2509 32.5627 21.2244C33.0044 21.19 33.3188 20.9874 33.6534 20.6184L33.6831 20.5848L33.6847 20.584L36.1523 17.9209C36.2641 17.7998 36.257 17.6105 36.1358 17.4987Z" fill="white"/>
<path d="M21.081 30.7849C21.6893 30.7849 22.2233 30.9366 22.6822 31.2384L22.2944 32.0453C22.0818 31.9202 21.8535 31.8185 21.6095 31.7388C21.3656 31.6598 21.1599 31.62 20.9934 31.62C20.6947 31.62 20.5462 31.7192 20.5462 31.9171C20.5462 32.0445 20.6189 32.1469 20.7651 32.2236C20.9129 32.301 21.0919 32.3674 21.303 32.4237C21.5157 32.48 21.7268 32.548 21.9379 32.627C22.1482 32.7068 22.3265 32.8358 22.4727 33.0148C22.6205 33.1923 22.6948 33.4167 22.6948 33.6872C22.6948 34.0774 22.5415 34.3815 22.235 34.6004C21.9301 34.8194 21.5415 34.9288 21.0685 34.9288C20.7323 34.9288 20.4 34.8718 20.0708 34.7568C19.7408 34.6403 19.4555 34.4808 19.2139 34.2783L19.6142 33.4839C19.8183 33.6614 20.0591 33.8076 20.3366 33.9218C20.6158 34.0367 20.8636 34.0938 21.081 34.0938C21.2475 34.0938 21.3765 34.0641 21.4688 34.0031C21.5626 33.9429 21.6095 33.8553 21.6095 33.7404C21.6095 33.6278 21.5564 33.534 21.45 33.4589C21.3437 33.3823 21.2108 33.326 21.0528 33.29C20.8941 33.2525 20.7221 33.204 20.5368 33.143C20.3507 33.0805 20.1779 33.0132 20.0176 32.9397C19.8589 32.8647 19.7268 32.7474 19.6204 32.5863C19.5141 32.4261 19.4609 32.2345 19.4609 32.0109C19.4609 31.6379 19.6087 31.3408 19.905 31.1196C20.2006 30.8967 20.5931 30.7849 21.081 30.7849Z" fill="white"/>
<path d="M27.3196 30.8319V33.1869C27.3196 33.7248 27.1522 34.1525 26.8192 34.4692C26.4876 34.7843 26.0373 34.9414 25.4681 34.9414C24.8942 34.9414 24.4391 34.7843 24.1014 34.4692C23.7636 34.1525 23.5947 33.7248 23.5947 33.1869V30.8319H24.6268V33.1869C24.6268 33.4582 24.705 33.674 24.8614 33.8343C25.0177 33.9954 25.2218 34.0751 25.4743 34.0751C25.7222 34.0751 25.92 33.9961 26.0686 33.8374C26.2187 33.6795 26.2937 33.4621 26.2937 33.1869V30.8319H27.3196Z" fill="white"/>
<path d="M28.4688 30.8319H30.2389C30.7581 30.8319 31.1599 30.9554 31.4461 31.201C31.7315 31.4472 31.8746 31.7967 31.8746 32.2487C31.8746 32.724 31.7315 33.0931 31.4461 33.3558C31.1599 33.6185 30.7581 33.7499 30.2389 33.7499H29.5008V34.8945H28.4688V30.8319ZM29.5008 31.6451V32.9398H30.1857C30.4148 32.9398 30.5907 32.8835 30.7143 32.7709C30.8394 32.6584 30.9019 32.4957 30.9019 32.2831C30.9019 32.0751 30.8394 31.9164 30.7143 31.8077C30.5907 31.6998 30.4148 31.6451 30.1857 31.6451H29.5008Z" fill="white"/>
<path d="M36.0015 31.6451H33.8529V32.4519H35.7919V33.262H33.8529V34.0814H36.064V34.8945H32.8208V30.8319H36.0015V31.6451Z" fill="white"/>
<path d="M39.5875 34.8945L38.9839 33.7499H38.1707V34.8945H37.1387V30.8319H38.9557C39.4937 30.8319 39.9096 30.9554 40.2036 31.201C40.4976 31.4472 40.6446 31.7967 40.6446 32.2487C40.6446 32.8742 40.3983 33.3089 39.9065 33.5528L40.7603 34.8945H39.5875ZM38.1707 32.9398H38.9557C39.1786 32.9398 39.3514 32.8835 39.4749 32.7709C39.6 32.6584 39.6626 32.4957 39.6626 32.2831C39.6626 32.0751 39.6 31.9164 39.4749 31.8077C39.3514 31.6998 39.1786 31.6451 38.9557 31.6451H38.1707V32.9398Z" fill="white"/>
<path d="M24.1829 38.4003H22.2032V39.3385H24.0265V40.1517H22.2032V41.6498H21.1711V37.5872H24.1829V38.4003Z" fill="white"/>
<path d="M27.0088 37.5527C27.6405 37.5527 28.1644 37.749 28.5819 38.1407C29.001 38.5332 29.2105 39.0242 29.2105 39.6137C29.2105 40.2064 28.9994 40.7013 28.5788 41.0993C28.1597 41.4981 27.6358 41.6967 27.0088 41.6967C26.3809 41.6967 25.8586 41.4988 25.4419 41.1024C25.0244 40.7045 24.8164 40.208 24.8164 39.6137C24.8164 39.0219 25.0244 38.5309 25.4419 38.1407C25.8586 37.749 26.3809 37.5527 27.0088 37.5527ZM27.0213 38.4159C26.7038 38.4159 26.4333 38.5316 26.2081 38.7631C25.983 38.9929 25.8704 39.2783 25.8704 39.62C25.8704 39.9601 25.983 40.2471 26.2081 40.4801C26.4349 40.7138 26.7054 40.8303 27.0182 40.8303C27.3325 40.8303 27.5999 40.7138 27.8188 40.4801C28.0377 40.2471 28.1472 39.9601 28.1472 39.62C28.1472 39.2783 28.0377 38.9929 27.8188 38.7631C27.5999 38.5316 27.334 38.4159 27.0213 38.4159Z" fill="white"/>
<path d="M32.0869 37.5527C32.7186 37.5527 33.2425 37.749 33.66 38.1407C34.0791 38.5332 34.2886 39.0242 34.2886 39.6137C34.2886 40.2064 34.0775 40.7013 33.6569 41.0993C33.2378 41.4981 32.714 41.6967 32.0869 41.6967C31.4591 41.6967 30.9368 41.4988 30.52 41.1024C30.1025 40.7045 29.8945 40.208 29.8945 39.6137C29.8945 39.0219 30.1025 38.5309 30.52 38.1407C30.9368 37.749 31.4591 37.5527 32.0869 37.5527ZM32.0994 38.4159C31.782 38.4159 31.5114 38.5316 31.2863 38.7631C31.0611 38.9929 30.9485 39.2783 30.9485 39.62C30.9485 39.9601 31.0611 40.2471 31.2863 40.4801C31.513 40.7138 31.7835 40.8303 32.0963 40.8303C32.4106 40.8303 32.678 40.7138 32.8969 40.4801C33.1158 40.2471 33.2253 39.9601 33.2253 39.62C33.2253 39.2783 33.1158 38.9929 32.8969 38.7631C32.678 38.5316 32.4122 38.4159 32.0994 38.4159Z" fill="white"/>
<path d="M35.238 37.5872H36.9863C37.6243 37.5872 38.1435 37.7748 38.5438 38.1501C38.9441 38.5254 39.1443 39.0149 39.1443 39.6169C39.1443 40.2174 38.941 40.7068 38.5344 41.0837C38.1278 41.4613 37.5977 41.6498 36.9456 41.6498H35.238V37.5872ZM36.2701 38.4097V40.8241H37.0082C37.3249 40.8241 37.5844 40.7139 37.7869 40.4926C37.991 40.2698 38.0934 39.9812 38.0934 39.6263C38.0934 39.2697 37.9871 38.9781 37.7744 38.7506C37.5618 38.5238 37.2904 38.4097 36.9613 38.4097H36.2701Z" fill="white"/>
<path d="M24.5727 45.126C24.7917 45.126 24.9871 45.1838 25.1607 45.298L25.045 45.5482C24.8738 45.4442 24.7088 45.3918 24.5508 45.3918C24.4672 45.3918 24.4007 45.4075 24.3507 45.4387C24.3022 45.4684 24.2787 45.5107 24.2787 45.567C24.2787 45.6232 24.3006 45.6717 24.3444 45.7108C24.3898 45.7483 24.4461 45.7765 24.5133 45.7953C24.5798 45.814 24.6525 45.8383 24.7322 45.8672C24.8112 45.8946 24.8839 45.9235 24.9512 45.9548C25.0176 45.986 25.0731 46.0353 25.1169 46.1018C25.1607 46.169 25.1826 46.2487 25.1826 46.3426C25.1826 46.4911 25.1232 46.6084 25.0043 46.696C24.887 46.7835 24.7361 46.8273 24.5508 46.8273C24.421 46.8273 24.2959 46.8039 24.1755 46.7554C24.0567 46.7077 23.9519 46.6428 23.8628 46.5615L23.9848 46.3144C24.07 46.3942 24.163 46.4552 24.2631 46.4989C24.3648 46.5412 24.4617 46.5615 24.554 46.5615C24.654 46.5615 24.7307 46.5443 24.7854 46.5083C24.8417 46.4708 24.8698 46.4208 24.8698 46.3582C24.8698 46.3003 24.8464 46.2511 24.801 46.2112C24.7573 46.1721 24.701 46.144 24.6322 46.1268C24.5649 46.108 24.4922 46.0853 24.4132 46.058C24.3358 46.0314 24.2631 46.0032 24.1943 45.9735C24.1271 45.9446 24.0708 45.8977 24.0254 45.8328C23.9816 45.7663 23.9597 45.6858 23.9597 45.592C23.9597 45.4505 24.016 45.3379 24.1286 45.2542C24.2412 45.169 24.389 45.126 24.5727 45.126Z" fill="white"/>
<path d="M26.8853 45.3916H25.9658V45.8451H26.7883V46.0984H25.9658V46.5644H26.9134V46.8177H25.6843V45.1351H26.8853V45.3916Z" fill="white"/>
<path d="M27.7097 46.8177H27.4282V45.1351H27.7097V46.8177Z" fill="white"/>
<path d="M29.4695 45.3916H28.9347V46.8177H28.6533V45.3916H28.1216V45.1351H29.4695V45.3916Z" fill="white"/>
<path d="M31.0908 46.8177H30.8062V45.3885H30.4778V45.1351H31.0908V46.8177Z" fill="white"/>
<path d="M32.195 46.8305C32.0112 46.8305 31.8447 46.7882 31.6946 46.7022L31.804 46.4896C31.9119 46.5607 32.0362 46.5959 32.1762 46.5959C32.3341 46.5959 32.453 46.5419 32.5327 46.4333C32.6117 46.323 32.6492 46.1737 32.6453 45.986C32.5554 46.1448 32.4022 46.2237 32.1856 46.2237C32.0167 46.2237 31.8838 46.176 31.7884 46.0799C31.6922 45.9821 31.6445 45.8516 31.6445 45.6889C31.6445 45.5161 31.6977 45.3793 31.804 45.2792C31.9119 45.1776 32.0558 45.126 32.2356 45.126C32.4483 45.126 32.6148 45.1979 32.736 45.3418C32.8588 45.4856 32.9205 45.6858 32.9205 45.9422C32.9205 46.2112 32.8549 46.427 32.7235 46.5896C32.5922 46.7507 32.4155 46.8305 32.195 46.8305ZM32.2388 46.0017C32.349 46.0017 32.4366 45.972 32.5015 45.911C32.5679 45.8484 32.6 45.7726 32.5984 45.6827C32.6 45.6014 32.571 45.5294 32.5108 45.4669C32.4499 45.4028 32.3639 45.3699 32.2513 45.3699C32.1465 45.3699 32.0636 45.3981 32.0011 45.4544C31.9401 45.5107 31.9104 45.5904 31.9104 45.6921C31.9104 45.7882 31.9393 45.8641 31.9979 45.9204C32.0558 45.9751 32.1363 46.0017 32.2388 46.0017Z" fill="white"/>
<path d="M33.8395 46.8305C33.6558 46.8305 33.4892 46.7882 33.3391 46.7022L33.4486 46.4896C33.5565 46.5607 33.6808 46.5959 33.8207 46.5959C33.9787 46.5959 34.0975 46.5419 34.1773 46.4333C34.2562 46.323 34.2938 46.1737 34.2899 45.986C34.1999 46.1448 34.0467 46.2237 33.8301 46.2237C33.6612 46.2237 33.5283 46.176 33.4329 46.0799C33.3368 45.9821 33.2891 45.8516 33.2891 45.6889C33.2891 45.5161 33.3422 45.3793 33.4486 45.2792C33.5565 45.1776 33.7003 45.126 33.8802 45.126C34.0928 45.126 34.2594 45.1979 34.3806 45.3418C34.5033 45.4856 34.5651 45.6858 34.5651 45.9422C34.5651 46.2112 34.4994 46.427 34.368 46.5896C34.2367 46.7507 34.06 46.8305 33.8395 46.8305ZM33.8833 46.0017C33.9935 46.0017 34.0811 45.972 34.146 45.911C34.2125 45.8484 34.2445 45.7726 34.2429 45.6827C34.2445 45.6014 34.2156 45.5294 34.1554 45.4669C34.0944 45.4028 34.0084 45.3699 33.8958 45.3699C33.791 45.3699 33.7081 45.3981 33.6456 45.4544C33.5846 45.5107 33.5549 45.5904 33.5549 45.6921C33.5549 45.7882 33.5838 45.8641 33.6425 45.9204C33.7003 45.9751 33.7809 46.0017 33.8833 46.0017Z" fill="white"/>
<path d="M35.5256 45.126C35.6859 45.126 35.8149 45.1651 35.9134 45.2417C36.0111 45.3168 36.0604 45.4192 36.0604 45.5482C36.0604 45.6944 35.958 45.8781 35.7539 46.0986L35.316 46.5646H36.1386V46.8179H34.9439V46.6115L35.5631 45.9454C35.6984 45.8062 35.7664 45.6874 35.7664 45.5888C35.7664 45.5224 35.7414 45.47 35.6913 45.4325C35.6413 45.3934 35.5725 45.373 35.4849 45.373C35.3325 45.373 35.1792 45.4434 35.0252 45.5826L34.9126 45.3637C35.1104 45.2057 35.3145 45.126 35.5256 45.126Z" fill="white"/>
</svg>
