<svg width="18" height="15" viewBox="0 0 18 15" fill="none" xmlns="http://www.w3.org/2000/svg">
<path d="M17.4683 2.53651C16.8321 2.81793 16.1574 3.00274 15.4666 3.08485C16.1947 2.64938 16.7397 1.96403 16.9999 1.15651C16.3166 1.56318 15.5674 1.84818 14.7866 2.00235C14.2621 1.44116 13.5669 1.06898 12.8091 0.943668C12.0512 0.818353 11.2732 0.946924 10.596 1.30939C9.91875 1.67186 9.38025 2.24792 9.06418 2.94801C8.74812 3.6481 8.67221 4.433 8.84826 5.18068C7.46251 5.11123 6.10687 4.75112 4.86933 4.12373C3.63179 3.49635 2.54003 2.61572 1.66492 1.53901C1.35516 2.07106 1.19238 2.67587 1.19326 3.29151C1.19326 4.49985 1.80826 5.56735 2.74326 6.19235C2.18993 6.17493 1.64878 6.0255 1.16492 5.75651V5.79985C1.16509 6.6046 1.44356 7.38453 1.95313 8.0074C2.46269 8.63027 3.17199 9.05774 3.96076 9.21735C3.4471 9.35655 2.90851 9.37706 2.38576 9.27735C2.60814 9.97004 3.04159 10.5758 3.62542 11.0099C4.20924 11.444 4.9142 11.6847 5.64159 11.6982C4.91866 12.266 4.0909 12.6857 3.20566 12.9333C2.32041 13.181 1.39503 13.2517 0.482422 13.1415C2.0755 14.166 3.93 14.7099 5.82409 14.7082C12.2349 14.7082 15.7408 9.39735 15.7408 4.79151C15.7408 4.64151 15.7366 4.48985 15.7299 4.34151C16.4123 3.84832 17.0013 3.23736 17.4691 2.53735L17.4683 2.53651Z" fill="white"/>
</svg>
