<svg width="60" height="61" viewBox="0 0 60 61" fill="none" xmlns="http://www.w3.org/2000/svg">
<path d="M59.8496 29.5557C59.7496 29.5135 59.6605 29.5307 59.5839 29.6073L50.3171 38.8741V20.0966C50.3171 19.9888 50.2655 19.9137 50.1655 19.8731C50.0654 19.8309 49.9763 19.8481 49.8997 19.9247L40.6329 29.1915V10.414C40.6251 10.3124 40.5735 10.2421 40.4797 10.2061C40.3844 10.1686 40.3 10.1842 40.2249 10.253L30.9581 19.5198V0.742357C30.955 0.636058 30.905 0.562586 30.8081 0.521942C30.7096 0.481298 30.622 0.496931 30.5454 0.570402L0.0704022 31.0579C-0.00306941 31.1345 -0.0187013 31.2221 0.0219423 31.319C0.0625863 31.4175 0.136058 31.4675 0.242357 31.4691H19.0089L9.75301 40.7359C9.67641 40.8125 9.65921 40.9016 9.69986 41.0016C9.74207 41.1017 9.8171 41.1517 9.92496 41.1517H28.6883L19.4294 50.4185C19.3528 50.4966 19.3356 50.5842 19.3762 50.6842C19.4184 50.7843 19.4919 50.8343 19.6013 50.8343H38.3678L29.1073 60.1011C29.0322 60.1792 29.0135 60.2668 29.0557 60.3668C29.0963 60.4669 29.1714 60.5169 29.2792 60.5169H59.7558C59.8231 60.5169 59.8809 60.4934 59.9278 60.4465C59.9762 60.3981 59.9997 60.3418 59.9997 60.273V29.7902C60.0044 29.6776 59.9544 29.5995 59.8496 29.5557ZM0.831692 30.9814L30.4751 1.33169V20.0075L19.4966 30.9814H0.831692ZM30.4751 20.6875V30.9814H20.186L30.4751 20.6875ZM10.5112 40.6655L19.6982 31.4691H30.719C30.7862 31.4691 30.844 31.4456 30.8909 31.3987C30.9394 31.3503 30.9628 31.2924 30.9628 31.2252V20.2045L40.1546 11.0096V29.6839L29.1792 40.6655H10.5112ZM40.1546 30.3717V40.664H29.8654L40.1546 30.3717ZM20.1891 50.345L29.3777 41.1532H40.3984C40.4657 41.1532 40.5219 41.1298 40.5704 41.0813C40.6173 41.0344 40.6423 40.9766 40.6423 40.9094V29.884L49.8325 20.6875V39.3618L38.8587 50.345H20.1891ZM49.8325 40.0527V50.345H39.5449L49.8325 40.0527ZM59.512 60.0245H29.8733L39.0603 50.8327H50.0764C50.1436 50.8327 50.2014 50.8093 50.2499 50.7608C50.2968 50.7139 50.3202 50.6561 50.3202 50.5889V39.565L59.512 30.3717V60.0245Z" fill="white"/>
</svg>
