<svg width="50" height="44" viewBox="0 0 50 44" fill="none" xmlns="http://www.w3.org/2000/svg">
<path d="M49.9935 22.2609V22.2479C49.9974 22.231 50 22.214 50 22.1958C50 22.1789 49.9974 22.1619 49.9935 22.145C49.9935 22.145 49.9935 22.1359 49.9935 22.132C49.9896 22.119 49.9844 22.1073 49.9792 22.0955C49.9792 22.0929 49.9792 22.089 49.9792 22.0864L37.582 0.677572V0.671061C37.5755 0.659342 37.5664 0.648926 37.5573 0.639811C37.5547 0.635905 37.5521 0.631999 37.5482 0.629395C37.5352 0.617676 37.5208 0.605957 37.5065 0.598145C37.4883 0.58903 37.4701 0.58252 37.4505 0.578613C37.4466 0.577311 37.4427 0.577311 37.4375 0.578613C37.4245 0.576009 37.4115 0.576009 37.3984 0.578613H12.5977C12.5833 0.576009 12.5703 0.576009 12.5573 0.578613C12.5534 0.577311 12.5482 0.577311 12.5443 0.578613C12.5273 0.58252 12.5117 0.58903 12.4961 0.598145C12.4805 0.605957 12.4674 0.617676 12.4544 0.629395C12.4505 0.633301 12.4479 0.635905 12.444 0.639811C12.4349 0.648926 12.4271 0.660645 12.4206 0.671061V0.677572L0.0221354 22.0864C0.0221354 22.089 0.0221354 22.0929 0.0221354 22.0955C0.0156248 22.1073 0.0104168 22.119 0.0078125 22.132C0.0078125 22.132 0.0078125 22.1398 0.0078125 22.145C0.00260417 22.1619 0 22.1789 0 22.1958C0 22.214 0.00260417 22.231 0.0078125 22.2479V22.2609C0.0104168 22.2739 0.0156248 22.2869 0.0221354 22.2987C0.0221354 22.2987 0.0221354 22.3039 0.0221354 22.3065L12.4141 43.7153V43.7231C12.4219 43.7336 12.4297 43.744 12.4388 43.7544L12.4492 43.7648C12.4609 43.7765 12.4753 43.7869 12.4909 43.7961C12.5065 43.8039 12.5221 43.8104 12.5391 43.8156C12.5586 43.8208 12.5768 43.8234 12.5964 43.8234H37.3854C37.4049 43.8234 37.4232 43.8208 37.4427 43.8156C37.4596 43.8104 37.4753 43.8039 37.4909 43.7961C37.5065 43.7869 37.5195 43.7765 37.5326 43.7648L37.5417 43.7544C37.5508 43.744 37.5586 43.7336 37.5664 43.7231V43.7153L49.9753 22.3065C49.9753 22.3065 49.9753 22.3013 49.9753 22.2987C49.9831 22.2869 49.9883 22.2739 49.9935 22.2609ZM37.3919 43.1672L25.3828 22.4159H49.3997L37.3919 43.1672ZM12.6068 1.22705L24.6146 21.9771H0.595052L12.6068 1.22705ZM25.0013 21.757L12.9935 1.0083H37.0104L25.0013 21.757ZM25.0013 22.6359L37.0104 43.3859H12.9935L25.0013 22.6359ZM25.3841 21.9771L26.0312 20.8586C26.0339 20.8716 26.0365 20.8846 26.0417 20.8976C26.069 20.9614 26.1185 20.994 26.1888 20.994C26.2578 20.994 26.3073 20.9614 26.3346 20.8976C26.3424 20.8781 26.3464 20.8573 26.3464 20.8364C26.3464 20.8039 26.3372 20.7752 26.319 20.7479C26.2878 20.701 26.2448 20.6776 26.1888 20.6776C26.1667 20.6776 26.1471 20.6828 26.1276 20.6906L27.7799 17.8338C27.7878 17.8351 27.7943 17.8351 27.8021 17.8338C27.8385 17.826 27.8698 17.8078 27.8932 17.7791C27.9167 17.7505 27.9284 17.7166 27.9284 17.6789C27.9284 17.6554 27.9219 17.632 27.9115 17.6112L30.0794 13.8651C30.1016 13.8755 30.125 13.8807 30.1497 13.882C30.194 13.882 30.2318 13.8664 30.2617 13.8351C30.293 13.8039 30.3086 13.7674 30.3086 13.7231C30.3086 13.6672 30.2852 13.6229 30.2383 13.5916L32.3997 9.85596C32.431 9.90153 32.474 9.92367 32.5299 9.92367C32.5716 9.92236 32.6068 9.90674 32.6354 9.87809C32.6654 9.84815 32.681 9.81299 32.6823 9.77132C32.6836 9.72966 32.6719 9.6932 32.6445 9.66195C32.6172 9.6307 32.5833 9.61247 32.5417 9.60856L34.2135 6.72184C34.2461 6.6958 34.2656 6.66195 34.2708 6.61898L34.7539 5.78695C34.7539 5.79346 34.7539 5.79997 34.7539 5.80648C34.7539 5.84945 34.7695 5.88721 34.8008 5.91846C34.832 5.94841 34.8685 5.96403 34.9128 5.96403C34.957 5.96403 34.9935 5.94841 35.0247 5.91846C35.056 5.88721 35.0716 5.84945 35.0716 5.80648C35.0716 5.76221 35.056 5.72575 35.0247 5.6945C34.9935 5.66325 34.957 5.64762 34.9128 5.64762C34.8776 5.64762 34.8464 5.65804 34.8177 5.68018L36.4857 2.79867H36.4987C36.5651 2.79867 36.612 2.77002 36.6419 2.71143C36.6706 2.65413 36.6654 2.59814 36.6263 2.54606L37.3919 1.22705L38.1198 2.48617C38.1081 2.48486 38.0951 2.48486 38.0833 2.48617C38.043 2.48486 38.0065 2.49919 37.9766 2.52653C37.9453 2.55387 37.9284 2.58773 37.9245 2.62809C37.9206 2.66846 37.9297 2.70492 37.9544 2.73877C37.9792 2.77132 38.0117 2.79085 38.0521 2.79867C38.0924 2.80648 38.1302 2.79997 38.1654 2.77913C38.1992 2.757 38.2227 2.72705 38.2344 2.68799L40.4128 6.44971H40.401C40.3372 6.47835 40.3047 6.52653 40.3047 6.59684C40.3047 6.66585 40.3372 6.71533 40.401 6.74268C40.4206 6.75049 40.4414 6.75439 40.4635 6.75439C40.4948 6.75439 40.5247 6.74528 40.5508 6.72835C40.5573 6.72835 40.5625 6.71794 40.5677 6.71403L42.7266 10.4497C42.6797 10.5005 42.6706 10.5578 42.6979 10.6203C42.7253 10.6841 42.7734 10.7153 42.8424 10.7153C42.8542 10.7179 42.8659 10.7179 42.8776 10.7153L45.0677 14.4966C45.0599 14.5252 45.0625 14.5526 45.0755 14.5799C45.0938 14.619 45.1224 14.6463 45.1628 14.6632L46.8151 17.5265H46.8047C46.7826 17.5265 46.763 17.5304 46.7422 17.5396C46.6784 17.5669 46.6458 17.6151 46.6458 17.6854C46.6458 17.7544 46.6784 17.8039 46.7422 17.8312C46.763 17.839 46.7826 17.8429 46.8047 17.8429C46.8359 17.8429 46.8659 17.8338 46.8932 17.8169C46.9167 17.8 46.9349 17.7791 46.9466 17.7544L49.1146 21.4992C49.0391 21.5356 49.0104 21.5955 49.0286 21.6776C49.0482 21.7583 49.1003 21.8 49.1836 21.7987C49.2161 21.7987 49.2461 21.7896 49.2721 21.7726L49.3984 21.9927L25.3841 21.9771Z" fill="white"/>
</svg>
