<svg width="50" height="66" viewBox="0 0 50 66" fill="none" xmlns="http://www.w3.org/2000/svg">
<path d="M49.9864 33.1056C49.9881 33.1005 49.9881 33.0954 49.9864 33.0903C49.9949 33.063 49.9983 33.0375 50 33.0086C49.9983 32.9813 49.9949 32.9558 49.9864 32.9286C49.9881 32.9235 49.9881 32.9183 49.9864 32.9132C49.9779 32.8877 49.966 32.8639 49.9506 32.8418L25.2264 0.480291L25.2179 0.471781C25.2077 0.459866 25.1957 0.447952 25.1838 0.439441C25.1311 0.396889 25.0732 0.376465 25.0068 0.376465C24.9404 0.376465 24.8809 0.396889 24.8298 0.439441C24.8179 0.447952 24.806 0.459866 24.7958 0.471781L24.7855 0.480291L0.0578704 32.8366C0.0408495 32.8588 0.0289351 32.8826 0.0204248 32.9081C0.0204248 32.9132 0.0204248 32.9183 0.0204248 32.9235C0.0136166 32.949 0.00851035 32.9762 0.00851035 33.0034H0C0 33.0307 0.00510621 33.0579 0.0119145 33.0851C0.0119145 33.0903 0.0119145 33.0954 0.0119145 33.1005C0.0204247 33.126 0.0323391 33.1498 0.04936 33.1702L24.7668 65.5266C24.7702 65.53 24.7719 65.5334 24.777 65.5368L24.8026 65.564L24.8213 65.5794C24.8315 65.5879 24.8417 65.5947 24.8536 65.5998L24.8723 65.61L24.9132 65.6253H24.9302C24.9711 65.6355 25.0119 65.6355 25.0511 65.6253H25.0681L25.1089 65.61L25.1277 65.5998C25.1396 65.5947 25.1498 65.5879 25.16 65.5794L25.1787 65.564L25.206 65.5368C25.2094 65.5334 25.2128 65.53 25.2162 65.5266L49.9336 33.1702C49.954 33.1515 49.9728 33.1311 49.9864 33.1056ZM25.2825 26.185H44.1534L46.8716 29.7406H25.2825V26.185ZM25.2825 25.6182V22.0625H41.0029L43.7194 25.6182H25.2825ZM25.2825 21.4958V17.9367H37.8523L40.5705 21.494L25.2825 21.4958ZM25.2825 17.3699V13.816H34.6984L37.4183 17.3699H25.2825ZM25.2825 13.2475V9.69189H31.5496L34.2661 13.2492L25.2825 13.2475ZM25.2825 9.1234V5.56778H28.3973L31.1189 9.1251L25.2825 9.1234ZM25.2825 4.99929V1.48962L27.965 5.00099L25.2825 4.99929ZM24.7175 32.726H0.854439L24.7175 1.48962V32.726ZM25.2825 33.2928H49.1524L25.2825 64.5292V33.2928ZM25.2825 32.726V30.3074H47.3039L49.1524 32.726H25.2825Z" fill="white"/>
</svg>
