<svg width="106" height="31" viewBox="0 0 106 31" fill="none" xmlns="http://www.w3.org/2000/svg">
<path fill-rule="evenodd" clip-rule="evenodd" d="M0.373291 0.5H105.671V30.5H0.373291V0.5ZM1.80186 1.92857V29.0714H104.242V1.92857H1.80186Z" fill="white"/>
<path d="M3.89478 3.90222H53.0004V27.1165H3.89478V3.90222Z" fill="white"/>
<path d="M10.1127 19.4299H11.0272L14.1259 11.6283H13.0889L11.7852 14.9161L10.57 18.0147L9.34382 14.9161L8.05104 11.6283H7.00317L10.1127 19.4299Z" fill="#090909"/>
<path d="M16.2961 19.4299H17.2774V11.6283H16.2961V19.4299Z" fill="#090909"/>
<path d="M22.9948 19.5741C24.6999 19.5741 25.8036 18.7386 25.8036 17.3791C25.8036 16.2305 25.0347 15.5407 23.0398 15.0493C21.5238 14.6819 21.0215 14.2805 21.0215 13.6341C21.0215 12.8869 21.6912 12.4188 22.8057 12.4188C23.9528 12.4188 24.6658 12.9985 24.6891 13.9348H25.6579C25.647 12.4188 24.5542 11.4825 22.8057 11.4825C21.099 11.4825 20.0186 12.3196 20.0186 13.6341C20.0186 14.8385 20.8774 15.5066 22.7933 15.9639C24.1977 16.2972 24.7883 16.6878 24.7883 17.4132C24.7883 18.1821 24.0985 18.6378 22.9948 18.6378C21.7795 18.6378 20.9332 18.0364 20.9099 17.0335H19.9287C19.9411 18.5603 21.1331 19.5741 22.9948 19.5741Z" fill="#090909"/>
<path d="M28.4529 19.4299H29.4341V11.6283H28.4529V19.4299Z" fill="#090909"/>
<path d="M36.0986 19.5741C38.4734 19.5741 40.1444 17.9031 40.1444 15.5283C40.1444 13.1551 38.4734 11.4825 36.0986 11.4825C33.7239 11.4825 32.0637 13.1551 32.0637 15.5283C32.0637 17.9031 33.7239 19.5741 36.0986 19.5741ZM33.0666 15.5283C33.0666 13.7116 34.3036 12.4638 36.0986 12.4638C37.8936 12.4638 39.1306 13.7116 39.1306 15.5283C39.1306 17.345 37.8936 18.5944 36.0986 18.5944C34.3036 18.5944 33.0666 17.345 33.0666 15.5283Z" fill="#090909"/>
<path d="M42.76 19.4299H43.7304V13.3226L48.0443 19.4299H48.9573V11.6283H47.9993V17.7357L43.6854 11.6283H42.76V19.4299Z" fill="#090909"/>
<path d="M60.1804 19.3597C62.1196 19.3597 63.2667 18.4452 63.2667 16.9075C63.2667 15.6147 62.4312 14.8567 60.537 14.4335C59.5341 14.2103 59.1667 13.9654 59.1667 13.5639C59.1667 13.1841 59.5 12.9501 60.0239 12.9501C60.6486 12.9501 61.0051 13.274 61.0051 13.8646H63.1225C63.1225 12.2603 61.8964 11.2233 59.9789 11.2233C58.1405 11.2233 57.0043 12.1378 57.0043 13.6089C57.0043 14.9234 57.8615 15.7372 59.6224 16.072C60.5695 16.2611 61.0268 16.551 61.0268 16.9974C61.0268 17.3865 60.6935 17.6097 60.1463 17.6097C59.5 17.6097 59.1217 17.264 59.1217 16.6626H56.9485C56.9485 18.346 58.1514 19.3597 60.1804 19.3597Z" fill="white"/>
<path d="M66.3657 19.1923H68.6056V13.474H70.9804V11.3906H63.991V13.474H66.3657V19.1923Z" fill="white"/>
<path d="M75.4704 19.3597C77.577 19.3597 78.8822 18.0778 78.8822 15.982V11.3906H76.6407V15.8379C76.6407 16.7633 76.2516 17.2531 75.4704 17.2531C74.6907 17.2531 74.3001 16.7633 74.3001 15.8379V11.3906H72.0493V15.982C72.0493 18.0778 73.3638 19.3597 75.4704 19.3597Z" fill="white"/>
<path d="M80.4746 19.1923H83.7856C86.3045 19.1923 87.9755 17.6437 87.9755 15.2907C87.9755 12.95 86.3045 11.3906 83.7856 11.3906H80.4746V19.1923ZM82.7254 17.1756V13.4073H83.7174C84.911 13.4073 85.6798 14.1436 85.6798 15.2907C85.6798 16.4393 84.911 17.1756 83.7174 17.1756H82.7254Z" fill="white"/>
<path d="M89.179 19.1923H91.4297V11.3906H89.179V19.1923Z" fill="white"/>
<path d="M96.8803 19.3597C99.3651 19.3597 101.126 17.6763 101.126 15.2907C101.126 12.9067 99.3651 11.2233 96.8803 11.2233C94.3955 11.2233 92.6331 12.9067 92.6331 15.2907C92.6331 17.6763 94.3955 19.3597 96.8803 19.3597ZM94.9179 15.2907C94.9179 14.1204 95.7317 13.3082 96.8803 13.3082C98.0398 13.3082 98.8412 14.1204 98.8412 15.2907C98.8412 16.4611 98.0398 17.2749 96.8803 17.2749C95.7317 17.2749 94.9179 16.4611 94.9179 15.2907Z" fill="white"/>
</svg>
